<?xml version="1.0"?>
<svg xmlns="http://www.w3.org/2000/svg" xmlns:xlink="http://www.w3.org/1999/xlink" version="1.1" width="500px" height="500px" viewBox="0 0 500 500"><defs><rect id="block" width="12.19512195122" height="12.19512195122" fill="#000000" fill-opacity="1"/></defs><rect x="0" y="0" width="500" height="500" fill="#ffffff" fill-opacity="1"/><use x="0" y="0" xlink:href="#block"/><use x="12.19512195122" y="0" xlink:href="#block"/><use x="24.390243902439" y="0" xlink:href="#block"/><use x="36.585365853659" y="0" xlink:href="#block"/><use x="48.780487804878" y="0" xlink:href="#block"/><use x="60.975609756098" y="0" xlink:href="#block"/><use x="73.170731707317" y="0" xlink:href="#block"/><use x="97.560975609756" y="0" xlink:href="#block"/><use x="195.12195121951" y="0" xlink:href="#block"/><use x="243.90243902439" y="0" xlink:href="#block"/><use x="280.48780487805" y="0" xlink:href="#block"/><use x="292.68292682927" y="0" xlink:href="#block"/><use x="329.26829268293" y="0" xlink:href="#block"/><use x="353.65853658537" y="0" xlink:href="#block"/><use x="378.0487804878" y="0" xlink:href="#block"/><use x="414.63414634146" y="0" xlink:href="#block"/><use x="426.82926829268" y="0" xlink:href="#block"/><use x="439.0243902439" y="0" xlink:href="#block"/><use x="451.21951219512" y="0" xlink:href="#block"/><use x="463.41463414634" y="0" xlink:href="#block"/><use x="475.60975609756" y="0" xlink:href="#block"/><use x="487.80487804878" y="0" xlink:href="#block"/><use x="0" y="12.19512195122" xlink:href="#block"/><use x="73.170731707317" y="12.19512195122" xlink:href="#block"/><use x="158.53658536585" y="12.19512195122" xlink:href="#block"/><use x="170.73170731707" y="12.19512195122" xlink:href="#block"/><use x="182.92682926829" y="12.19512195122" xlink:href="#block"/><use x="207.31707317073" y="12.19512195122" xlink:href="#block"/><use x="280.48780487805" y="12.19512195122" xlink:href="#block"/><use x="292.68292682927" y="12.19512195122" xlink:href="#block"/><use x="304.87804878049" y="12.19512195122" xlink:href="#block"/><use x="317.07317073171" y="12.19512195122" xlink:href="#block"/><use x="341.46341463415" y="12.19512195122" xlink:href="#block"/><use x="365.85365853659" y="12.19512195122" xlink:href="#block"/><use x="414.63414634146" y="12.19512195122" xlink:href="#block"/><use x="487.80487804878" y="12.19512195122" xlink:href="#block"/><use x="0" y="24.390243902439" xlink:href="#block"/><use x="24.390243902439" y="24.390243902439" xlink:href="#block"/><use x="36.585365853659" y="24.390243902439" xlink:href="#block"/><use x="48.780487804878" y="24.390243902439" xlink:href="#block"/><use x="73.170731707317" y="24.390243902439" xlink:href="#block"/><use x="97.560975609756" y="24.390243902439" xlink:href="#block"/><use x="109.75609756098" y="24.390243902439" xlink:href="#block"/><use x="121.9512195122" y="24.390243902439" xlink:href="#block"/><use x="134.14634146341" y="24.390243902439" xlink:href="#block"/><use x="170.73170731707" y="24.390243902439" xlink:href="#block"/><use x="219.51219512195" y="24.390243902439" xlink:href="#block"/><use x="231.70731707317" y="24.390243902439" xlink:href="#block"/><use x="243.90243902439" y="24.390243902439" xlink:href="#block"/><use x="292.68292682927" y="24.390243902439" xlink:href="#block"/><use x="304.87804878049" y="24.390243902439" xlink:href="#block"/><use x="341.46341463415" y="24.390243902439" xlink:href="#block"/><use x="378.0487804878" y="24.390243902439" xlink:href="#block"/><use x="390.24390243902" y="24.390243902439" xlink:href="#block"/><use x="414.63414634146" y="24.390243902439" xlink:href="#block"/><use x="439.0243902439" y="24.390243902439" xlink:href="#block"/><use x="451.21951219512" y="24.390243902439" xlink:href="#block"/><use x="463.41463414634" y="24.390243902439" xlink:href="#block"/><use x="487.80487804878" y="24.390243902439" xlink:href="#block"/><use x="0" y="36.585365853659" xlink:href="#block"/><use x="24.390243902439" y="36.585365853659" xlink:href="#block"/><use x="36.585365853659" y="36.585365853659" xlink:href="#block"/><use x="48.780487804878" y="36.585365853659" xlink:href="#block"/><use x="73.170731707317" y="36.585365853659" xlink:href="#block"/><use x="134.14634146341" y="36.585365853659" xlink:href="#block"/><use x="182.92682926829" y="36.585365853659" xlink:href="#block"/><use x="195.12195121951" y="36.585365853659" xlink:href="#block"/><use x="219.51219512195" y="36.585365853659" xlink:href="#block"/><use x="231.70731707317" y="36.585365853659" xlink:href="#block"/><use x="268.29268292683" y="36.585365853659" xlink:href="#block"/><use x="292.68292682927" y="36.585365853659" xlink:href="#block"/><use x="365.85365853659" y="36.585365853659" xlink:href="#block"/><use x="414.63414634146" y="36.585365853659" xlink:href="#block"/><use x="439.0243902439" y="36.585365853659" xlink:href="#block"/><use x="451.21951219512" y="36.585365853659" xlink:href="#block"/><use x="463.41463414634" y="36.585365853659" xlink:href="#block"/><use x="487.80487804878" y="36.585365853659" xlink:href="#block"/><use x="0" y="48.780487804878" xlink:href="#block"/><use x="24.390243902439" y="48.780487804878" xlink:href="#block"/><use x="36.585365853659" y="48.780487804878" xlink:href="#block"/><use x="48.780487804878" y="48.780487804878" xlink:href="#block"/><use x="73.170731707317" y="48.780487804878" xlink:href="#block"/><use x="97.560975609756" y="48.780487804878" xlink:href="#block"/><use x="134.14634146341" y="48.780487804878" xlink:href="#block"/><use x="146.34146341463" y="48.780487804878" xlink:href="#block"/><use x="170.73170731707" y="48.780487804878" xlink:href="#block"/><use x="195.12195121951" y="48.780487804878" xlink:href="#block"/><use x="219.51219512195" y="48.780487804878" xlink:href="#block"/><use x="280.48780487805" y="48.780487804878" xlink:href="#block"/><use x="304.87804878049" y="48.780487804878" xlink:href="#block"/><use x="378.0487804878" y="48.780487804878" xlink:href="#block"/><use x="414.63414634146" y="48.780487804878" xlink:href="#block"/><use x="439.0243902439" y="48.780487804878" xlink:href="#block"/><use x="451.21951219512" y="48.780487804878" xlink:href="#block"/><use x="463.41463414634" y="48.780487804878" xlink:href="#block"/><use x="487.80487804878" y="48.780487804878" xlink:href="#block"/><use x="0" y="60.975609756098" xlink:href="#block"/><use x="73.170731707317" y="60.975609756098" xlink:href="#block"/><use x="121.9512195122" y="60.975609756098" xlink:href="#block"/><use x="134.14634146341" y="60.975609756098" xlink:href="#block"/><use x="158.53658536585" y="60.975609756098" xlink:href="#block"/><use x="170.73170731707" y="60.975609756098" xlink:href="#block"/><use x="182.92682926829" y="60.975609756098" xlink:href="#block"/><use x="195.12195121951" y="60.975609756098" xlink:href="#block"/><use x="207.31707317073" y="60.975609756098" xlink:href="#block"/><use x="243.90243902439" y="60.975609756098" xlink:href="#block"/><use x="256.09756097561" y="60.975609756098" xlink:href="#block"/><use x="304.87804878049" y="60.975609756098" xlink:href="#block"/><use x="341.46341463415" y="60.975609756098" xlink:href="#block"/><use x="353.65853658537" y="60.975609756098" xlink:href="#block"/><use x="365.85365853659" y="60.975609756098" xlink:href="#block"/><use x="390.24390243902" y="60.975609756098" xlink:href="#block"/><use x="414.63414634146" y="60.975609756098" xlink:href="#block"/><use x="487.80487804878" y="60.975609756098" xlink:href="#block"/><use x="0" y="73.170731707317" xlink:href="#block"/><use x="12.19512195122" y="73.170731707317" xlink:href="#block"/><use x="24.390243902439" y="73.170731707317" xlink:href="#block"/><use x="36.585365853659" y="73.170731707317" xlink:href="#block"/><use x="48.780487804878" y="73.170731707317" xlink:href="#block"/><use x="60.975609756098" y="73.170731707317" xlink:href="#block"/><use x="73.170731707317" y="73.170731707317" xlink:href="#block"/><use x="97.560975609756" y="73.170731707317" xlink:href="#block"/><use x="121.9512195122" y="73.170731707317" xlink:href="#block"/><use x="146.34146341463" y="73.170731707317" xlink:href="#block"/><use x="170.73170731707" y="73.170731707317" xlink:href="#block"/><use x="195.12195121951" y="73.170731707317" xlink:href="#block"/><use x="219.51219512195" y="73.170731707317" xlink:href="#block"/><use x="243.90243902439" y="73.170731707317" xlink:href="#block"/><use x="268.29268292683" y="73.170731707317" xlink:href="#block"/><use x="292.68292682927" y="73.170731707317" xlink:href="#block"/><use x="317.07317073171" y="73.170731707317" xlink:href="#block"/><use x="341.46341463415" y="73.170731707317" xlink:href="#block"/><use x="365.85365853659" y="73.170731707317" xlink:href="#block"/><use x="390.24390243902" y="73.170731707317" xlink:href="#block"/><use x="414.63414634146" y="73.170731707317" xlink:href="#block"/><use x="426.82926829268" y="73.170731707317" xlink:href="#block"/><use x="439.0243902439" y="73.170731707317" xlink:href="#block"/><use x="451.21951219512" y="73.170731707317" xlink:href="#block"/><use x="463.41463414634" y="73.170731707317" xlink:href="#block"/><use x="475.60975609756" y="73.170731707317" xlink:href="#block"/><use x="487.80487804878" y="73.170731707317" xlink:href="#block"/><use x="97.560975609756" y="85.365853658537" xlink:href="#block"/><use x="109.75609756098" y="85.365853658537" xlink:href="#block"/><use x="134.14634146341" y="85.365853658537" xlink:href="#block"/><use x="158.53658536585" y="85.365853658537" xlink:href="#block"/><use x="195.12195121951" y="85.365853658537" xlink:href="#block"/><use x="219.51219512195" y="85.365853658537" xlink:href="#block"/><use x="231.70731707317" y="85.365853658537" xlink:href="#block"/><use x="243.90243902439" y="85.365853658537" xlink:href="#block"/><use x="317.07317073171" y="85.365853658537" xlink:href="#block"/><use x="329.26829268293" y="85.365853658537" xlink:href="#block"/><use x="341.46341463415" y="85.365853658537" xlink:href="#block"/><use x="353.65853658537" y="85.365853658537" xlink:href="#block"/><use x="365.85365853659" y="85.365853658537" xlink:href="#block"/><use x="378.0487804878" y="85.365853658537" xlink:href="#block"/><use x="390.24390243902" y="85.365853658537" xlink:href="#block"/><use x="60.975609756098" y="97.560975609756" xlink:href="#block"/><use x="73.170731707317" y="97.560975609756" xlink:href="#block"/><use x="170.73170731707" y="97.560975609756" xlink:href="#block"/><use x="207.31707317073" y="97.560975609756" xlink:href="#block"/><use x="219.51219512195" y="97.560975609756" xlink:href="#block"/><use x="280.48780487805" y="97.560975609756" xlink:href="#block"/><use x="292.68292682927" y="97.560975609756" xlink:href="#block"/><use x="317.07317073171" y="97.560975609756" xlink:href="#block"/><use x="329.26829268293" y="97.560975609756" xlink:href="#block"/><use x="353.65853658537" y="97.560975609756" xlink:href="#block"/><use x="390.24390243902" y="97.560975609756" xlink:href="#block"/><use x="414.63414634146" y="97.560975609756" xlink:href="#block"/><use x="439.0243902439" y="97.560975609756" xlink:href="#block"/><use x="463.41463414634" y="97.560975609756" xlink:href="#block"/><use x="487.80487804878" y="97.560975609756" xlink:href="#block"/><use x="0" y="109.75609756098" xlink:href="#block"/><use x="12.19512195122" y="109.75609756098" xlink:href="#block"/><use x="48.780487804878" y="109.75609756098" xlink:href="#block"/><use x="60.975609756098" y="109.75609756098" xlink:href="#block"/><use x="97.560975609756" y="109.75609756098" xlink:href="#block"/><use x="109.75609756098" y="109.75609756098" xlink:href="#block"/><use x="121.9512195122" y="109.75609756098" xlink:href="#block"/><use x="146.34146341463" y="109.75609756098" xlink:href="#block"/><use x="158.53658536585" y="109.75609756098" xlink:href="#block"/><use x="182.92682926829" y="109.75609756098" xlink:href="#block"/><use x="207.31707317073" y="109.75609756098" xlink:href="#block"/><use x="231.70731707317" y="109.75609756098" xlink:href="#block"/><use x="243.90243902439" y="109.75609756098" xlink:href="#block"/><use x="292.68292682927" y="109.75609756098" xlink:href="#block"/><use x="304.87804878049" y="109.75609756098" xlink:href="#block"/><use x="341.46341463415" y="109.75609756098" xlink:href="#block"/><use x="378.0487804878" y="109.75609756098" xlink:href="#block"/><use x="402.43902439024" y="109.75609756098" xlink:href="#block"/><use x="426.82926829268" y="109.75609756098" xlink:href="#block"/><use x="439.0243902439" y="109.75609756098" xlink:href="#block"/><use x="463.41463414634" y="109.75609756098" xlink:href="#block"/><use x="487.80487804878" y="109.75609756098" xlink:href="#block"/><use x="0" y="121.9512195122" xlink:href="#block"/><use x="24.390243902439" y="121.9512195122" xlink:href="#block"/><use x="36.585365853659" y="121.9512195122" xlink:href="#block"/><use x="48.780487804878" y="121.9512195122" xlink:href="#block"/><use x="60.975609756098" y="121.9512195122" xlink:href="#block"/><use x="73.170731707317" y="121.9512195122" xlink:href="#block"/><use x="85.365853658537" y="121.9512195122" xlink:href="#block"/><use x="146.34146341463" y="121.9512195122" xlink:href="#block"/><use x="195.12195121951" y="121.9512195122" xlink:href="#block"/><use x="219.51219512195" y="121.9512195122" xlink:href="#block"/><use x="231.70731707317" y="121.9512195122" xlink:href="#block"/><use x="243.90243902439" y="121.9512195122" xlink:href="#block"/><use x="268.29268292683" y="121.9512195122" xlink:href="#block"/><use x="280.48780487805" y="121.9512195122" xlink:href="#block"/><use x="304.87804878049" y="121.9512195122" xlink:href="#block"/><use x="353.65853658537" y="121.9512195122" xlink:href="#block"/><use x="378.0487804878" y="121.9512195122" xlink:href="#block"/><use x="402.43902439024" y="121.9512195122" xlink:href="#block"/><use x="463.41463414634" y="121.9512195122" xlink:href="#block"/><use x="487.80487804878" y="121.9512195122" xlink:href="#block"/><use x="0" y="134.14634146341" xlink:href="#block"/><use x="12.19512195122" y="134.14634146341" xlink:href="#block"/><use x="24.390243902439" y="134.14634146341" xlink:href="#block"/><use x="60.975609756098" y="134.14634146341" xlink:href="#block"/><use x="97.560975609756" y="134.14634146341" xlink:href="#block"/><use x="109.75609756098" y="134.14634146341" xlink:href="#block"/><use x="121.9512195122" y="134.14634146341" xlink:href="#block"/><use x="146.34146341463" y="134.14634146341" xlink:href="#block"/><use x="158.53658536585" y="134.14634146341" xlink:href="#block"/><use x="170.73170731707" y="134.14634146341" xlink:href="#block"/><use x="195.12195121951" y="134.14634146341" xlink:href="#block"/><use x="219.51219512195" y="134.14634146341" xlink:href="#block"/><use x="231.70731707317" y="134.14634146341" xlink:href="#block"/><use x="292.68292682927" y="134.14634146341" xlink:href="#block"/><use x="304.87804878049" y="134.14634146341" xlink:href="#block"/><use x="317.07317073171" y="134.14634146341" xlink:href="#block"/><use x="329.26829268293" y="134.14634146341" xlink:href="#block"/><use x="341.46341463415" y="134.14634146341" xlink:href="#block"/><use x="378.0487804878" y="134.14634146341" xlink:href="#block"/><use x="426.82926829268" y="134.14634146341" xlink:href="#block"/><use x="439.0243902439" y="134.14634146341" xlink:href="#block"/><use x="451.21951219512" y="134.14634146341" xlink:href="#block"/><use x="463.41463414634" y="134.14634146341" xlink:href="#block"/><use x="487.80487804878" y="134.14634146341" xlink:href="#block"/><use x="0" y="146.34146341463" xlink:href="#block"/><use x="48.780487804878" y="146.34146341463" xlink:href="#block"/><use x="73.170731707317" y="146.34146341463" xlink:href="#block"/><use x="85.365853658537" y="146.34146341463" xlink:href="#block"/><use x="109.75609756098" y="146.34146341463" xlink:href="#block"/><use x="121.9512195122" y="146.34146341463" xlink:href="#block"/><use x="134.14634146341" y="146.34146341463" xlink:href="#block"/><use x="146.34146341463" y="146.34146341463" xlink:href="#block"/><use x="182.92682926829" y="146.34146341463" xlink:href="#block"/><use x="207.31707317073" y="146.34146341463" xlink:href="#block"/><use x="219.51219512195" y="146.34146341463" xlink:href="#block"/><use x="243.90243902439" y="146.34146341463" xlink:href="#block"/><use x="268.29268292683" y="146.34146341463" xlink:href="#block"/><use x="292.68292682927" y="146.34146341463" xlink:href="#block"/><use x="304.87804878049" y="146.34146341463" xlink:href="#block"/><use x="317.07317073171" y="146.34146341463" xlink:href="#block"/><use x="329.26829268293" y="146.34146341463" xlink:href="#block"/><use x="353.65853658537" y="146.34146341463" xlink:href="#block"/><use x="378.0487804878" y="146.34146341463" xlink:href="#block"/><use x="390.24390243902" y="146.34146341463" xlink:href="#block"/><use x="402.43902439024" y="146.34146341463" xlink:href="#block"/><use x="414.63414634146" y="146.34146341463" xlink:href="#block"/><use x="439.0243902439" y="146.34146341463" xlink:href="#block"/><use x="487.80487804878" y="146.34146341463" xlink:href="#block"/><use x="12.19512195122" y="158.53658536585" xlink:href="#block"/><use x="85.365853658537" y="158.53658536585" xlink:href="#block"/><use x="97.560975609756" y="158.53658536585" xlink:href="#block"/><use x="109.75609756098" y="158.53658536585" xlink:href="#block"/><use x="121.9512195122" y="158.53658536585" xlink:href="#block"/><use x="146.34146341463" y="158.53658536585" xlink:href="#block"/><use x="158.53658536585" y="158.53658536585" xlink:href="#block"/><use x="170.73170731707" y="158.53658536585" xlink:href="#block"/><use x="195.12195121951" y="158.53658536585" xlink:href="#block"/><use x="268.29268292683" y="158.53658536585" xlink:href="#block"/><use x="304.87804878049" y="158.53658536585" xlink:href="#block"/><use x="365.85365853659" y="158.53658536585" xlink:href="#block"/><use x="390.24390243902" y="158.53658536585" xlink:href="#block"/><use x="426.82926829268" y="158.53658536585" xlink:href="#block"/><use x="487.80487804878" y="158.53658536585" xlink:href="#block"/><use x="12.19512195122" y="170.73170731707" xlink:href="#block"/><use x="24.390243902439" y="170.73170731707" xlink:href="#block"/><use x="36.585365853659" y="170.73170731707" xlink:href="#block"/><use x="73.170731707317" y="170.73170731707" xlink:href="#block"/><use x="170.73170731707" y="170.73170731707" xlink:href="#block"/><use x="182.92682926829" y="170.73170731707" xlink:href="#block"/><use x="195.12195121951" y="170.73170731707" xlink:href="#block"/><use x="280.48780487805" y="170.73170731707" xlink:href="#block"/><use x="292.68292682927" y="170.73170731707" xlink:href="#block"/><use x="317.07317073171" y="170.73170731707" xlink:href="#block"/><use x="329.26829268293" y="170.73170731707" xlink:href="#block"/><use x="341.46341463415" y="170.73170731707" xlink:href="#block"/><use x="353.65853658537" y="170.73170731707" xlink:href="#block"/><use x="378.0487804878" y="170.73170731707" xlink:href="#block"/><use x="463.41463414634" y="170.73170731707" xlink:href="#block"/><use x="475.60975609756" y="170.73170731707" xlink:href="#block"/><use x="24.390243902439" y="182.92682926829" xlink:href="#block"/><use x="60.975609756098" y="182.92682926829" xlink:href="#block"/><use x="158.53658536585" y="182.92682926829" xlink:href="#block"/><use x="170.73170731707" y="182.92682926829" xlink:href="#block"/><use x="207.31707317073" y="182.92682926829" xlink:href="#block"/><use x="219.51219512195" y="182.92682926829" xlink:href="#block"/><use x="243.90243902439" y="182.92682926829" xlink:href="#block"/><use x="268.29268292683" y="182.92682926829" xlink:href="#block"/><use x="292.68292682927" y="182.92682926829" xlink:href="#block"/><use x="304.87804878049" y="182.92682926829" xlink:href="#block"/><use x="317.07317073171" y="182.92682926829" xlink:href="#block"/><use x="341.46341463415" y="182.92682926829" xlink:href="#block"/><use x="378.0487804878" y="182.92682926829" xlink:href="#block"/><use x="402.43902439024" y="182.92682926829" xlink:href="#block"/><use x="426.82926829268" y="182.92682926829" xlink:href="#block"/><use x="439.0243902439" y="182.92682926829" xlink:href="#block"/><use x="451.21951219512" y="182.92682926829" xlink:href="#block"/><use x="475.60975609756" y="182.92682926829" xlink:href="#block"/><use x="0" y="195.12195121951" xlink:href="#block"/><use x="24.390243902439" y="195.12195121951" xlink:href="#block"/><use x="73.170731707317" y="195.12195121951" xlink:href="#block"/><use x="97.560975609756" y="195.12195121951" xlink:href="#block"/><use x="109.75609756098" y="195.12195121951" xlink:href="#block"/><use x="121.9512195122" y="195.12195121951" xlink:href="#block"/><use x="146.34146341463" y="195.12195121951" xlink:href="#block"/><use x="158.53658536585" y="195.12195121951" xlink:href="#block"/><use x="182.92682926829" y="195.12195121951" xlink:href="#block"/><use x="207.31707317073" y="195.12195121951" xlink:href="#block"/><use x="231.70731707317" y="195.12195121951" xlink:href="#block"/><use x="243.90243902439" y="195.12195121951" xlink:href="#block"/><use x="256.09756097561" y="195.12195121951" xlink:href="#block"/><use x="280.48780487805" y="195.12195121951" xlink:href="#block"/><use x="292.68292682927" y="195.12195121951" xlink:href="#block"/><use x="304.87804878049" y="195.12195121951" xlink:href="#block"/><use x="317.07317073171" y="195.12195121951" xlink:href="#block"/><use x="329.26829268293" y="195.12195121951" xlink:href="#block"/><use x="353.65853658537" y="195.12195121951" xlink:href="#block"/><use x="365.85365853659" y="195.12195121951" xlink:href="#block"/><use x="378.0487804878" y="195.12195121951" xlink:href="#block"/><use x="402.43902439024" y="195.12195121951" xlink:href="#block"/><use x="439.0243902439" y="195.12195121951" xlink:href="#block"/><use x="463.41463414634" y="195.12195121951" xlink:href="#block"/><use x="0" y="207.31707317073" xlink:href="#block"/><use x="60.975609756098" y="207.31707317073" xlink:href="#block"/><use x="85.365853658537" y="207.31707317073" xlink:href="#block"/><use x="158.53658536585" y="207.31707317073" xlink:href="#block"/><use x="170.73170731707" y="207.31707317073" xlink:href="#block"/><use x="207.31707317073" y="207.31707317073" xlink:href="#block"/><use x="231.70731707317" y="207.31707317073" xlink:href="#block"/><use x="243.90243902439" y="207.31707317073" xlink:href="#block"/><use x="268.29268292683" y="207.31707317073" xlink:href="#block"/><use x="280.48780487805" y="207.31707317073" xlink:href="#block"/><use x="292.68292682927" y="207.31707317073" xlink:href="#block"/><use x="304.87804878049" y="207.31707317073" xlink:href="#block"/><use x="353.65853658537" y="207.31707317073" xlink:href="#block"/><use x="365.85365853659" y="207.31707317073" xlink:href="#block"/><use x="426.82926829268" y="207.31707317073" xlink:href="#block"/><use x="439.0243902439" y="207.31707317073" xlink:href="#block"/><use x="451.21951219512" y="207.31707317073" xlink:href="#block"/><use x="487.80487804878" y="207.31707317073" xlink:href="#block"/><use x="12.19512195122" y="219.51219512195" xlink:href="#block"/><use x="24.390243902439" y="219.51219512195" xlink:href="#block"/><use x="36.585365853659" y="219.51219512195" xlink:href="#block"/><use x="48.780487804878" y="219.51219512195" xlink:href="#block"/><use x="60.975609756098" y="219.51219512195" xlink:href="#block"/><use x="73.170731707317" y="219.51219512195" xlink:href="#block"/><use x="109.75609756098" y="219.51219512195" xlink:href="#block"/><use x="134.14634146341" y="219.51219512195" xlink:href="#block"/><use x="158.53658536585" y="219.51219512195" xlink:href="#block"/><use x="170.73170731707" y="219.51219512195" xlink:href="#block"/><use x="182.92682926829" y="219.51219512195" xlink:href="#block"/><use x="219.51219512195" y="219.51219512195" xlink:href="#block"/><use x="231.70731707317" y="219.51219512195" xlink:href="#block"/><use x="256.09756097561" y="219.51219512195" xlink:href="#block"/><use x="280.48780487805" y="219.51219512195" xlink:href="#block"/><use x="292.68292682927" y="219.51219512195" xlink:href="#block"/><use x="317.07317073171" y="219.51219512195" xlink:href="#block"/><use x="329.26829268293" y="219.51219512195" xlink:href="#block"/><use x="390.24390243902" y="219.51219512195" xlink:href="#block"/><use x="402.43902439024" y="219.51219512195" xlink:href="#block"/><use x="414.63414634146" y="219.51219512195" xlink:href="#block"/><use x="451.21951219512" y="219.51219512195" xlink:href="#block"/><use x="475.60975609756" y="219.51219512195" xlink:href="#block"/><use x="487.80487804878" y="219.51219512195" xlink:href="#block"/><use x="60.975609756098" y="231.70731707317" xlink:href="#block"/><use x="109.75609756098" y="231.70731707317" xlink:href="#block"/><use x="121.9512195122" y="231.70731707317" xlink:href="#block"/><use x="146.34146341463" y="231.70731707317" xlink:href="#block"/><use x="158.53658536585" y="231.70731707317" xlink:href="#block"/><use x="170.73170731707" y="231.70731707317" xlink:href="#block"/><use x="182.92682926829" y="231.70731707317" xlink:href="#block"/><use x="195.12195121951" y="231.70731707317" xlink:href="#block"/><use x="207.31707317073" y="231.70731707317" xlink:href="#block"/><use x="256.09756097561" y="231.70731707317" xlink:href="#block"/><use x="268.29268292683" y="231.70731707317" xlink:href="#block"/><use x="280.48780487805" y="231.70731707317" xlink:href="#block"/><use x="317.07317073171" y="231.70731707317" xlink:href="#block"/><use x="329.26829268293" y="231.70731707317" xlink:href="#block"/><use x="341.46341463415" y="231.70731707317" xlink:href="#block"/><use x="353.65853658537" y="231.70731707317" xlink:href="#block"/><use x="365.85365853659" y="231.70731707317" xlink:href="#block"/><use x="378.0487804878" y="231.70731707317" xlink:href="#block"/><use x="390.24390243902" y="231.70731707317" xlink:href="#block"/><use x="414.63414634146" y="231.70731707317" xlink:href="#block"/><use x="426.82926829268" y="231.70731707317" xlink:href="#block"/><use x="439.0243902439" y="231.70731707317" xlink:href="#block"/><use x="451.21951219512" y="231.70731707317" xlink:href="#block"/><use x="463.41463414634" y="231.70731707317" xlink:href="#block"/><use x="487.80487804878" y="231.70731707317" xlink:href="#block"/><use x="0" y="243.90243902439" xlink:href="#block"/><use x="24.390243902439" y="243.90243902439" xlink:href="#block"/><use x="48.780487804878" y="243.90243902439" xlink:href="#block"/><use x="73.170731707317" y="243.90243902439" xlink:href="#block"/><use x="85.365853658537" y="243.90243902439" xlink:href="#block"/><use x="97.560975609756" y="243.90243902439" xlink:href="#block"/><use x="109.75609756098" y="243.90243902439" xlink:href="#block"/><use x="121.9512195122" y="243.90243902439" xlink:href="#block"/><use x="146.34146341463" y="243.90243902439" xlink:href="#block"/><use x="219.51219512195" y="243.90243902439" xlink:href="#block"/><use x="256.09756097561" y="243.90243902439" xlink:href="#block"/><use x="268.29268292683" y="243.90243902439" xlink:href="#block"/><use x="304.87804878049" y="243.90243902439" xlink:href="#block"/><use x="329.26829268293" y="243.90243902439" xlink:href="#block"/><use x="341.46341463415" y="243.90243902439" xlink:href="#block"/><use x="390.24390243902" y="243.90243902439" xlink:href="#block"/><use x="414.63414634146" y="243.90243902439" xlink:href="#block"/><use x="426.82926829268" y="243.90243902439" xlink:href="#block"/><use x="451.21951219512" y="243.90243902439" xlink:href="#block"/><use x="463.41463414634" y="243.90243902439" xlink:href="#block"/><use x="0" y="256.09756097561" xlink:href="#block"/><use x="24.390243902439" y="256.09756097561" xlink:href="#block"/><use x="36.585365853659" y="256.09756097561" xlink:href="#block"/><use x="48.780487804878" y="256.09756097561" xlink:href="#block"/><use x="85.365853658537" y="256.09756097561" xlink:href="#block"/><use x="97.560975609756" y="256.09756097561" xlink:href="#block"/><use x="109.75609756098" y="256.09756097561" xlink:href="#block"/><use x="121.9512195122" y="256.09756097561" xlink:href="#block"/><use x="134.14634146341" y="256.09756097561" xlink:href="#block"/><use x="158.53658536585" y="256.09756097561" xlink:href="#block"/><use x="170.73170731707" y="256.09756097561" xlink:href="#block"/><use x="195.12195121951" y="256.09756097561" xlink:href="#block"/><use x="219.51219512195" y="256.09756097561" xlink:href="#block"/><use x="256.09756097561" y="256.09756097561" xlink:href="#block"/><use x="268.29268292683" y="256.09756097561" xlink:href="#block"/><use x="365.85365853659" y="256.09756097561" xlink:href="#block"/><use x="378.0487804878" y="256.09756097561" xlink:href="#block"/><use x="402.43902439024" y="256.09756097561" xlink:href="#block"/><use x="439.0243902439" y="256.09756097561" xlink:href="#block"/><use x="463.41463414634" y="256.09756097561" xlink:href="#block"/><use x="487.80487804878" y="256.09756097561" xlink:href="#block"/><use x="36.585365853659" y="268.29268292683" xlink:href="#block"/><use x="48.780487804878" y="268.29268292683" xlink:href="#block"/><use x="73.170731707317" y="268.29268292683" xlink:href="#block"/><use x="85.365853658537" y="268.29268292683" xlink:href="#block"/><use x="109.75609756098" y="268.29268292683" xlink:href="#block"/><use x="121.9512195122" y="268.29268292683" xlink:href="#block"/><use x="146.34146341463" y="268.29268292683" xlink:href="#block"/><use x="158.53658536585" y="268.29268292683" xlink:href="#block"/><use x="243.90243902439" y="268.29268292683" xlink:href="#block"/><use x="256.09756097561" y="268.29268292683" xlink:href="#block"/><use x="280.48780487805" y="268.29268292683" xlink:href="#block"/><use x="304.87804878049" y="268.29268292683" xlink:href="#block"/><use x="329.26829268293" y="268.29268292683" xlink:href="#block"/><use x="353.65853658537" y="268.29268292683" xlink:href="#block"/><use x="378.0487804878" y="268.29268292683" xlink:href="#block"/><use x="426.82926829268" y="268.29268292683" xlink:href="#block"/><use x="463.41463414634" y="268.29268292683" xlink:href="#block"/><use x="0" y="280.48780487805" xlink:href="#block"/><use x="12.19512195122" y="280.48780487805" xlink:href="#block"/><use x="36.585365853659" y="280.48780487805" xlink:href="#block"/><use x="60.975609756098" y="280.48780487805" xlink:href="#block"/><use x="97.560975609756" y="280.48780487805" xlink:href="#block"/><use x="121.9512195122" y="280.48780487805" xlink:href="#block"/><use x="134.14634146341" y="280.48780487805" xlink:href="#block"/><use x="146.34146341463" y="280.48780487805" xlink:href="#block"/><use x="158.53658536585" y="280.48780487805" xlink:href="#block"/><use x="170.73170731707" y="280.48780487805" xlink:href="#block"/><use x="195.12195121951" y="280.48780487805" xlink:href="#block"/><use x="231.70731707317" y="280.48780487805" xlink:href="#block"/><use x="243.90243902439" y="280.48780487805" xlink:href="#block"/><use x="256.09756097561" y="280.48780487805" xlink:href="#block"/><use x="268.29268292683" y="280.48780487805" xlink:href="#block"/><use x="280.48780487805" y="280.48780487805" xlink:href="#block"/><use x="292.68292682927" y="280.48780487805" xlink:href="#block"/><use x="304.87804878049" y="280.48780487805" xlink:href="#block"/><use x="317.07317073171" y="280.48780487805" xlink:href="#block"/><use x="329.26829268293" y="280.48780487805" xlink:href="#block"/><use x="341.46341463415" y="280.48780487805" xlink:href="#block"/><use x="365.85365853659" y="280.48780487805" xlink:href="#block"/><use x="378.0487804878" y="280.48780487805" xlink:href="#block"/><use x="390.24390243902" y="280.48780487805" xlink:href="#block"/><use x="402.43902439024" y="280.48780487805" xlink:href="#block"/><use x="414.63414634146" y="280.48780487805" xlink:href="#block"/><use x="439.0243902439" y="280.48780487805" xlink:href="#block"/><use x="451.21951219512" y="280.48780487805" xlink:href="#block"/><use x="463.41463414634" y="280.48780487805" xlink:href="#block"/><use x="487.80487804878" y="280.48780487805" xlink:href="#block"/><use x="0" y="292.68292682927" xlink:href="#block"/><use x="12.19512195122" y="292.68292682927" xlink:href="#block"/><use x="24.390243902439" y="292.68292682927" xlink:href="#block"/><use x="73.170731707317" y="292.68292682927" xlink:href="#block"/><use x="85.365853658537" y="292.68292682927" xlink:href="#block"/><use x="109.75609756098" y="292.68292682927" xlink:href="#block"/><use x="121.9512195122" y="292.68292682927" xlink:href="#block"/><use x="158.53658536585" y="292.68292682927" xlink:href="#block"/><use x="170.73170731707" y="292.68292682927" xlink:href="#block"/><use x="182.92682926829" y="292.68292682927" xlink:href="#block"/><use x="219.51219512195" y="292.68292682927" xlink:href="#block"/><use x="256.09756097561" y="292.68292682927" xlink:href="#block"/><use x="280.48780487805" y="292.68292682927" xlink:href="#block"/><use x="292.68292682927" y="292.68292682927" xlink:href="#block"/><use x="304.87804878049" y="292.68292682927" xlink:href="#block"/><use x="329.26829268293" y="292.68292682927" xlink:href="#block"/><use x="341.46341463415" y="292.68292682927" xlink:href="#block"/><use x="378.0487804878" y="292.68292682927" xlink:href="#block"/><use x="390.24390243902" y="292.68292682927" xlink:href="#block"/><use x="402.43902439024" y="292.68292682927" xlink:href="#block"/><use x="414.63414634146" y="292.68292682927" xlink:href="#block"/><use x="426.82926829268" y="292.68292682927" xlink:href="#block"/><use x="439.0243902439" y="292.68292682927" xlink:href="#block"/><use x="475.60975609756" y="292.68292682927" xlink:href="#block"/><use x="0" y="304.87804878049" xlink:href="#block"/><use x="48.780487804878" y="304.87804878049" xlink:href="#block"/><use x="60.975609756098" y="304.87804878049" xlink:href="#block"/><use x="170.73170731707" y="304.87804878049" xlink:href="#block"/><use x="182.92682926829" y="304.87804878049" xlink:href="#block"/><use x="243.90243902439" y="304.87804878049" xlink:href="#block"/><use x="280.48780487805" y="304.87804878049" xlink:href="#block"/><use x="304.87804878049" y="304.87804878049" xlink:href="#block"/><use x="317.07317073171" y="304.87804878049" xlink:href="#block"/><use x="341.46341463415" y="304.87804878049" xlink:href="#block"/><use x="378.0487804878" y="304.87804878049" xlink:href="#block"/><use x="402.43902439024" y="304.87804878049" xlink:href="#block"/><use x="414.63414634146" y="304.87804878049" xlink:href="#block"/><use x="439.0243902439" y="304.87804878049" xlink:href="#block"/><use x="451.21951219512" y="304.87804878049" xlink:href="#block"/><use x="12.19512195122" y="317.07317073171" xlink:href="#block"/><use x="36.585365853659" y="317.07317073171" xlink:href="#block"/><use x="48.780487804878" y="317.07317073171" xlink:href="#block"/><use x="60.975609756098" y="317.07317073171" xlink:href="#block"/><use x="73.170731707317" y="317.07317073171" xlink:href="#block"/><use x="85.365853658537" y="317.07317073171" xlink:href="#block"/><use x="182.92682926829" y="317.07317073171" xlink:href="#block"/><use x="195.12195121951" y="317.07317073171" xlink:href="#block"/><use x="219.51219512195" y="317.07317073171" xlink:href="#block"/><use x="231.70731707317" y="317.07317073171" xlink:href="#block"/><use x="243.90243902439" y="317.07317073171" xlink:href="#block"/><use x="256.09756097561" y="317.07317073171" xlink:href="#block"/><use x="268.29268292683" y="317.07317073171" xlink:href="#block"/><use x="280.48780487805" y="317.07317073171" xlink:href="#block"/><use x="292.68292682927" y="317.07317073171" xlink:href="#block"/><use x="304.87804878049" y="317.07317073171" xlink:href="#block"/><use x="329.26829268293" y="317.07317073171" xlink:href="#block"/><use x="341.46341463415" y="317.07317073171" xlink:href="#block"/><use x="353.65853658537" y="317.07317073171" xlink:href="#block"/><use x="378.0487804878" y="317.07317073171" xlink:href="#block"/><use x="390.24390243902" y="317.07317073171" xlink:href="#block"/><use x="414.63414634146" y="317.07317073171" xlink:href="#block"/><use x="426.82926829268" y="317.07317073171" xlink:href="#block"/><use x="463.41463414634" y="317.07317073171" xlink:href="#block"/><use x="487.80487804878" y="317.07317073171" xlink:href="#block"/><use x="12.19512195122" y="329.26829268293" xlink:href="#block"/><use x="48.780487804878" y="329.26829268293" xlink:href="#block"/><use x="85.365853658537" y="329.26829268293" xlink:href="#block"/><use x="121.9512195122" y="329.26829268293" xlink:href="#block"/><use x="158.53658536585" y="329.26829268293" xlink:href="#block"/><use x="182.92682926829" y="329.26829268293" xlink:href="#block"/><use x="195.12195121951" y="329.26829268293" xlink:href="#block"/><use x="243.90243902439" y="329.26829268293" xlink:href="#block"/><use x="256.09756097561" y="329.26829268293" xlink:href="#block"/><use x="268.29268292683" y="329.26829268293" xlink:href="#block"/><use x="280.48780487805" y="329.26829268293" xlink:href="#block"/><use x="292.68292682927" y="329.26829268293" xlink:href="#block"/><use x="304.87804878049" y="329.26829268293" xlink:href="#block"/><use x="317.07317073171" y="329.26829268293" xlink:href="#block"/><use x="329.26829268293" y="329.26829268293" xlink:href="#block"/><use x="365.85365853659" y="329.26829268293" xlink:href="#block"/><use x="378.0487804878" y="329.26829268293" xlink:href="#block"/><use x="390.24390243902" y="329.26829268293" xlink:href="#block"/><use x="426.82926829268" y="329.26829268293" xlink:href="#block"/><use x="439.0243902439" y="329.26829268293" xlink:href="#block"/><use x="12.19512195122" y="341.46341463415" xlink:href="#block"/><use x="73.170731707317" y="341.46341463415" xlink:href="#block"/><use x="97.560975609756" y="341.46341463415" xlink:href="#block"/><use x="109.75609756098" y="341.46341463415" xlink:href="#block"/><use x="134.14634146341" y="341.46341463415" xlink:href="#block"/><use x="158.53658536585" y="341.46341463415" xlink:href="#block"/><use x="170.73170731707" y="341.46341463415" xlink:href="#block"/><use x="182.92682926829" y="341.46341463415" xlink:href="#block"/><use x="195.12195121951" y="341.46341463415" xlink:href="#block"/><use x="219.51219512195" y="341.46341463415" xlink:href="#block"/><use x="243.90243902439" y="341.46341463415" xlink:href="#block"/><use x="268.29268292683" y="341.46341463415" xlink:href="#block"/><use x="329.26829268293" y="341.46341463415" xlink:href="#block"/><use x="353.65853658537" y="341.46341463415" xlink:href="#block"/><use x="390.24390243902" y="341.46341463415" xlink:href="#block"/><use x="414.63414634146" y="341.46341463415" xlink:href="#block"/><use x="426.82926829268" y="341.46341463415" xlink:href="#block"/><use x="0" y="353.65853658537" xlink:href="#block"/><use x="12.19512195122" y="353.65853658537" xlink:href="#block"/><use x="97.560975609756" y="353.65853658537" xlink:href="#block"/><use x="134.14634146341" y="353.65853658537" xlink:href="#block"/><use x="146.34146341463" y="353.65853658537" xlink:href="#block"/><use x="182.92682926829" y="353.65853658537" xlink:href="#block"/><use x="219.51219512195" y="353.65853658537" xlink:href="#block"/><use x="231.70731707317" y="353.65853658537" xlink:href="#block"/><use x="243.90243902439" y="353.65853658537" xlink:href="#block"/><use x="280.48780487805" y="353.65853658537" xlink:href="#block"/><use x="304.87804878049" y="353.65853658537" xlink:href="#block"/><use x="317.07317073171" y="353.65853658537" xlink:href="#block"/><use x="341.46341463415" y="353.65853658537" xlink:href="#block"/><use x="426.82926829268" y="353.65853658537" xlink:href="#block"/><use x="451.21951219512" y="353.65853658537" xlink:href="#block"/><use x="0" y="365.85365853659" xlink:href="#block"/><use x="12.19512195122" y="365.85365853659" xlink:href="#block"/><use x="24.390243902439" y="365.85365853659" xlink:href="#block"/><use x="36.585365853659" y="365.85365853659" xlink:href="#block"/><use x="48.780487804878" y="365.85365853659" xlink:href="#block"/><use x="73.170731707317" y="365.85365853659" xlink:href="#block"/><use x="85.365853658537" y="365.85365853659" xlink:href="#block"/><use x="134.14634146341" y="365.85365853659" xlink:href="#block"/><use x="158.53658536585" y="365.85365853659" xlink:href="#block"/><use x="170.73170731707" y="365.85365853659" xlink:href="#block"/><use x="195.12195121951" y="365.85365853659" xlink:href="#block"/><use x="207.31707317073" y="365.85365853659" xlink:href="#block"/><use x="219.51219512195" y="365.85365853659" xlink:href="#block"/><use x="243.90243902439" y="365.85365853659" xlink:href="#block"/><use x="256.09756097561" y="365.85365853659" xlink:href="#block"/><use x="280.48780487805" y="365.85365853659" xlink:href="#block"/><use x="292.68292682927" y="365.85365853659" xlink:href="#block"/><use x="341.46341463415" y="365.85365853659" xlink:href="#block"/><use x="378.0487804878" y="365.85365853659" xlink:href="#block"/><use x="414.63414634146" y="365.85365853659" xlink:href="#block"/><use x="426.82926829268" y="365.85365853659" xlink:href="#block"/><use x="451.21951219512" y="365.85365853659" xlink:href="#block"/><use x="475.60975609756" y="365.85365853659" xlink:href="#block"/><use x="487.80487804878" y="365.85365853659" xlink:href="#block"/><use x="0" y="378.0487804878" xlink:href="#block"/><use x="24.390243902439" y="378.0487804878" xlink:href="#block"/><use x="36.585365853659" y="378.0487804878" xlink:href="#block"/><use x="48.780487804878" y="378.0487804878" xlink:href="#block"/><use x="60.975609756098" y="378.0487804878" xlink:href="#block"/><use x="85.365853658537" y="378.0487804878" xlink:href="#block"/><use x="109.75609756098" y="378.0487804878" xlink:href="#block"/><use x="134.14634146341" y="378.0487804878" xlink:href="#block"/><use x="158.53658536585" y="378.0487804878" xlink:href="#block"/><use x="170.73170731707" y="378.0487804878" xlink:href="#block"/><use x="195.12195121951" y="378.0487804878" xlink:href="#block"/><use x="256.09756097561" y="378.0487804878" xlink:href="#block"/><use x="292.68292682927" y="378.0487804878" xlink:href="#block"/><use x="317.07317073171" y="378.0487804878" xlink:href="#block"/><use x="329.26829268293" y="378.0487804878" xlink:href="#block"/><use x="341.46341463415" y="378.0487804878" xlink:href="#block"/><use x="365.85365853659" y="378.0487804878" xlink:href="#block"/><use x="402.43902439024" y="378.0487804878" xlink:href="#block"/><use x="414.63414634146" y="378.0487804878" xlink:href="#block"/><use x="426.82926829268" y="378.0487804878" xlink:href="#block"/><use x="439.0243902439" y="378.0487804878" xlink:href="#block"/><use x="475.60975609756" y="378.0487804878" xlink:href="#block"/><use x="487.80487804878" y="378.0487804878" xlink:href="#block"/><use x="0" y="390.24390243902" xlink:href="#block"/><use x="24.390243902439" y="390.24390243902" xlink:href="#block"/><use x="36.585365853659" y="390.24390243902" xlink:href="#block"/><use x="60.975609756098" y="390.24390243902" xlink:href="#block"/><use x="73.170731707317" y="390.24390243902" xlink:href="#block"/><use x="109.75609756098" y="390.24390243902" xlink:href="#block"/><use x="121.9512195122" y="390.24390243902" xlink:href="#block"/><use x="146.34146341463" y="390.24390243902" xlink:href="#block"/><use x="182.92682926829" y="390.24390243902" xlink:href="#block"/><use x="231.70731707317" y="390.24390243902" xlink:href="#block"/><use x="243.90243902439" y="390.24390243902" xlink:href="#block"/><use x="256.09756097561" y="390.24390243902" xlink:href="#block"/><use x="268.29268292683" y="390.24390243902" xlink:href="#block"/><use x="304.87804878049" y="390.24390243902" xlink:href="#block"/><use x="341.46341463415" y="390.24390243902" xlink:href="#block"/><use x="390.24390243902" y="390.24390243902" xlink:href="#block"/><use x="402.43902439024" y="390.24390243902" xlink:href="#block"/><use x="414.63414634146" y="390.24390243902" xlink:href="#block"/><use x="426.82926829268" y="390.24390243902" xlink:href="#block"/><use x="439.0243902439" y="390.24390243902" xlink:href="#block"/><use x="451.21951219512" y="390.24390243902" xlink:href="#block"/><use x="463.41463414634" y="390.24390243902" xlink:href="#block"/><use x="97.560975609756" y="402.43902439024" xlink:href="#block"/><use x="170.73170731707" y="402.43902439024" xlink:href="#block"/><use x="182.92682926829" y="402.43902439024" xlink:href="#block"/><use x="207.31707317073" y="402.43902439024" xlink:href="#block"/><use x="219.51219512195" y="402.43902439024" xlink:href="#block"/><use x="231.70731707317" y="402.43902439024" xlink:href="#block"/><use x="292.68292682927" y="402.43902439024" xlink:href="#block"/><use x="304.87804878049" y="402.43902439024" xlink:href="#block"/><use x="329.26829268293" y="402.43902439024" xlink:href="#block"/><use x="390.24390243902" y="402.43902439024" xlink:href="#block"/><use x="439.0243902439" y="402.43902439024" xlink:href="#block"/><use x="463.41463414634" y="402.43902439024" xlink:href="#block"/><use x="475.60975609756" y="402.43902439024" xlink:href="#block"/><use x="487.80487804878" y="402.43902439024" xlink:href="#block"/><use x="0" y="414.63414634146" xlink:href="#block"/><use x="12.19512195122" y="414.63414634146" xlink:href="#block"/><use x="24.390243902439" y="414.63414634146" xlink:href="#block"/><use x="36.585365853659" y="414.63414634146" xlink:href="#block"/><use x="48.780487804878" y="414.63414634146" xlink:href="#block"/><use x="60.975609756098" y="414.63414634146" xlink:href="#block"/><use x="73.170731707317" y="414.63414634146" xlink:href="#block"/><use x="109.75609756098" y="414.63414634146" xlink:href="#block"/><use x="134.14634146341" y="414.63414634146" xlink:href="#block"/><use x="146.34146341463" y="414.63414634146" xlink:href="#block"/><use x="182.92682926829" y="414.63414634146" xlink:href="#block"/><use x="231.70731707317" y="414.63414634146" xlink:href="#block"/><use x="280.48780487805" y="414.63414634146" xlink:href="#block"/><use x="292.68292682927" y="414.63414634146" xlink:href="#block"/><use x="304.87804878049" y="414.63414634146" xlink:href="#block"/><use x="317.07317073171" y="414.63414634146" xlink:href="#block"/><use x="365.85365853659" y="414.63414634146" xlink:href="#block"/><use x="390.24390243902" y="414.63414634146" xlink:href="#block"/><use x="414.63414634146" y="414.63414634146" xlink:href="#block"/><use x="439.0243902439" y="414.63414634146" xlink:href="#block"/><use x="463.41463414634" y="414.63414634146" xlink:href="#block"/><use x="0" y="426.82926829268" xlink:href="#block"/><use x="73.170731707317" y="426.82926829268" xlink:href="#block"/><use x="97.560975609756" y="426.82926829268" xlink:href="#block"/><use x="146.34146341463" y="426.82926829268" xlink:href="#block"/><use x="158.53658536585" y="426.82926829268" xlink:href="#block"/><use x="170.73170731707" y="426.82926829268" xlink:href="#block"/><use x="207.31707317073" y="426.82926829268" xlink:href="#block"/><use x="256.09756097561" y="426.82926829268" xlink:href="#block"/><use x="280.48780487805" y="426.82926829268" xlink:href="#block"/><use x="304.87804878049" y="426.82926829268" xlink:href="#block"/><use x="317.07317073171" y="426.82926829268" xlink:href="#block"/><use x="329.26829268293" y="426.82926829268" xlink:href="#block"/><use x="390.24390243902" y="426.82926829268" xlink:href="#block"/><use x="439.0243902439" y="426.82926829268" xlink:href="#block"/><use x="451.21951219512" y="426.82926829268" xlink:href="#block"/><use x="463.41463414634" y="426.82926829268" xlink:href="#block"/><use x="475.60975609756" y="426.82926829268" xlink:href="#block"/><use x="487.80487804878" y="426.82926829268" xlink:href="#block"/><use x="0" y="439.0243902439" xlink:href="#block"/><use x="24.390243902439" y="439.0243902439" xlink:href="#block"/><use x="36.585365853659" y="439.0243902439" xlink:href="#block"/><use x="48.780487804878" y="439.0243902439" xlink:href="#block"/><use x="73.170731707317" y="439.0243902439" xlink:href="#block"/><use x="121.9512195122" y="439.0243902439" xlink:href="#block"/><use x="134.14634146341" y="439.0243902439" xlink:href="#block"/><use x="170.73170731707" y="439.0243902439" xlink:href="#block"/><use x="182.92682926829" y="439.0243902439" xlink:href="#block"/><use x="207.31707317073" y="439.0243902439" xlink:href="#block"/><use x="219.51219512195" y="439.0243902439" xlink:href="#block"/><use x="231.70731707317" y="439.0243902439" xlink:href="#block"/><use x="329.26829268293" y="439.0243902439" xlink:href="#block"/><use x="341.46341463415" y="439.0243902439" xlink:href="#block"/><use x="353.65853658537" y="439.0243902439" xlink:href="#block"/><use x="365.85365853659" y="439.0243902439" xlink:href="#block"/><use x="378.0487804878" y="439.0243902439" xlink:href="#block"/><use x="390.24390243902" y="439.0243902439" xlink:href="#block"/><use x="402.43902439024" y="439.0243902439" xlink:href="#block"/><use x="414.63414634146" y="439.0243902439" xlink:href="#block"/><use x="426.82926829268" y="439.0243902439" xlink:href="#block"/><use x="439.0243902439" y="439.0243902439" xlink:href="#block"/><use x="487.80487804878" y="439.0243902439" xlink:href="#block"/><use x="0" y="451.21951219512" xlink:href="#block"/><use x="24.390243902439" y="451.21951219512" xlink:href="#block"/><use x="36.585365853659" y="451.21951219512" xlink:href="#block"/><use x="48.780487804878" y="451.21951219512" xlink:href="#block"/><use x="73.170731707317" y="451.21951219512" xlink:href="#block"/><use x="109.75609756098" y="451.21951219512" xlink:href="#block"/><use x="121.9512195122" y="451.21951219512" xlink:href="#block"/><use x="146.34146341463" y="451.21951219512" xlink:href="#block"/><use x="170.73170731707" y="451.21951219512" xlink:href="#block"/><use x="182.92682926829" y="451.21951219512" xlink:href="#block"/><use x="195.12195121951" y="451.21951219512" xlink:href="#block"/><use x="207.31707317073" y="451.21951219512" xlink:href="#block"/><use x="219.51219512195" y="451.21951219512" xlink:href="#block"/><use x="256.09756097561" y="451.21951219512" xlink:href="#block"/><use x="268.29268292683" y="451.21951219512" xlink:href="#block"/><use x="280.48780487805" y="451.21951219512" xlink:href="#block"/><use x="292.68292682927" y="451.21951219512" xlink:href="#block"/><use x="317.07317073171" y="451.21951219512" xlink:href="#block"/><use x="329.26829268293" y="451.21951219512" xlink:href="#block"/><use x="378.0487804878" y="451.21951219512" xlink:href="#block"/><use x="390.24390243902" y="451.21951219512" xlink:href="#block"/><use x="439.0243902439" y="451.21951219512" xlink:href="#block"/><use x="475.60975609756" y="451.21951219512" xlink:href="#block"/><use x="0" y="463.41463414634" xlink:href="#block"/><use x="24.390243902439" y="463.41463414634" xlink:href="#block"/><use x="36.585365853659" y="463.41463414634" xlink:href="#block"/><use x="48.780487804878" y="463.41463414634" xlink:href="#block"/><use x="73.170731707317" y="463.41463414634" xlink:href="#block"/><use x="109.75609756098" y="463.41463414634" xlink:href="#block"/><use x="121.9512195122" y="463.41463414634" xlink:href="#block"/><use x="134.14634146341" y="463.41463414634" xlink:href="#block"/><use x="195.12195121951" y="463.41463414634" xlink:href="#block"/><use x="207.31707317073" y="463.41463414634" xlink:href="#block"/><use x="219.51219512195" y="463.41463414634" xlink:href="#block"/><use x="231.70731707317" y="463.41463414634" xlink:href="#block"/><use x="268.29268292683" y="463.41463414634" xlink:href="#block"/><use x="304.87804878049" y="463.41463414634" xlink:href="#block"/><use x="317.07317073171" y="463.41463414634" xlink:href="#block"/><use x="329.26829268293" y="463.41463414634" xlink:href="#block"/><use x="341.46341463415" y="463.41463414634" xlink:href="#block"/><use x="353.65853658537" y="463.41463414634" xlink:href="#block"/><use x="378.0487804878" y="463.41463414634" xlink:href="#block"/><use x="414.63414634146" y="463.41463414634" xlink:href="#block"/><use x="426.82926829268" y="463.41463414634" xlink:href="#block"/><use x="439.0243902439" y="463.41463414634" xlink:href="#block"/><use x="451.21951219512" y="463.41463414634" xlink:href="#block"/><use x="463.41463414634" y="463.41463414634" xlink:href="#block"/><use x="475.60975609756" y="463.41463414634" xlink:href="#block"/><use x="0" y="475.60975609756" xlink:href="#block"/><use x="73.170731707317" y="475.60975609756" xlink:href="#block"/><use x="170.73170731707" y="475.60975609756" xlink:href="#block"/><use x="195.12195121951" y="475.60975609756" xlink:href="#block"/><use x="207.31707317073" y="475.60975609756" xlink:href="#block"/><use x="231.70731707317" y="475.60975609756" xlink:href="#block"/><use x="280.48780487805" y="475.60975609756" xlink:href="#block"/><use x="329.26829268293" y="475.60975609756" xlink:href="#block"/><use x="353.65853658537" y="475.60975609756" xlink:href="#block"/><use x="365.85365853659" y="475.60975609756" xlink:href="#block"/><use x="390.24390243902" y="475.60975609756" xlink:href="#block"/><use x="402.43902439024" y="475.60975609756" xlink:href="#block"/><use x="414.63414634146" y="475.60975609756" xlink:href="#block"/><use x="426.82926829268" y="475.60975609756" xlink:href="#block"/><use x="463.41463414634" y="475.60975609756" xlink:href="#block"/><use x="475.60975609756" y="475.60975609756" xlink:href="#block"/><use x="0" y="487.80487804878" xlink:href="#block"/><use x="12.19512195122" y="487.80487804878" xlink:href="#block"/><use x="24.390243902439" y="487.80487804878" xlink:href="#block"/><use x="36.585365853659" y="487.80487804878" xlink:href="#block"/><use x="48.780487804878" y="487.80487804878" xlink:href="#block"/><use x="60.975609756098" y="487.80487804878" xlink:href="#block"/><use x="73.170731707317" y="487.80487804878" xlink:href="#block"/><use x="109.75609756098" y="487.80487804878" xlink:href="#block"/><use x="121.9512195122" y="487.80487804878" xlink:href="#block"/><use x="158.53658536585" y="487.80487804878" xlink:href="#block"/><use x="170.73170731707" y="487.80487804878" xlink:href="#block"/><use x="243.90243902439" y="487.80487804878" xlink:href="#block"/><use x="304.87804878049" y="487.80487804878" xlink:href="#block"/><use x="329.26829268293" y="487.80487804878" xlink:href="#block"/><use x="341.46341463415" y="487.80487804878" xlink:href="#block"/><use x="365.85365853659" y="487.80487804878" xlink:href="#block"/><use x="414.63414634146" y="487.80487804878" xlink:href="#block"/><use x="426.82926829268" y="487.80487804878" xlink:href="#block"/><use x="439.0243902439" y="487.80487804878" xlink:href="#block"/><use x="451.21951219512" y="487.80487804878" xlink:href="#block"/><use x="463.41463414634" y="487.80487804878" xlink:href="#block"/></svg>
