<?xml version="1.0"?>
<svg xmlns="http://www.w3.org/2000/svg" xmlns:xlink="http://www.w3.org/1999/xlink" version="1.1" width="500px" height="500px" viewBox="0 0 500 500"><defs><rect id="block" width="13.513513513514" height="13.513513513514" fill="#000000" fill-opacity="1"/></defs><rect x="0" y="0" width="500" height="500" fill="#ffffff" fill-opacity="1"/><use x="0" y="0" xlink:href="#block"/><use x="13.513513513514" y="0" xlink:href="#block"/><use x="27.027027027027" y="0" xlink:href="#block"/><use x="40.540540540541" y="0" xlink:href="#block"/><use x="54.054054054054" y="0" xlink:href="#block"/><use x="67.567567567568" y="0" xlink:href="#block"/><use x="81.081081081081" y="0" xlink:href="#block"/><use x="121.62162162162" y="0" xlink:href="#block"/><use x="135.13513513514" y="0" xlink:href="#block"/><use x="148.64864864865" y="0" xlink:href="#block"/><use x="162.16216216216" y="0" xlink:href="#block"/><use x="202.7027027027" y="0" xlink:href="#block"/><use x="216.21621621622" y="0" xlink:href="#block"/><use x="229.72972972973" y="0" xlink:href="#block"/><use x="283.78378378378" y="0" xlink:href="#block"/><use x="351.35135135135" y="0" xlink:href="#block"/><use x="364.86486486486" y="0" xlink:href="#block"/><use x="378.37837837838" y="0" xlink:href="#block"/><use x="405.40540540541" y="0" xlink:href="#block"/><use x="418.91891891892" y="0" xlink:href="#block"/><use x="432.43243243243" y="0" xlink:href="#block"/><use x="445.94594594595" y="0" xlink:href="#block"/><use x="459.45945945946" y="0" xlink:href="#block"/><use x="472.97297297297" y="0" xlink:href="#block"/><use x="486.48648648649" y="0" xlink:href="#block"/><use x="0" y="13.513513513514" xlink:href="#block"/><use x="81.081081081081" y="13.513513513514" xlink:href="#block"/><use x="121.62162162162" y="13.513513513514" xlink:href="#block"/><use x="135.13513513514" y="13.513513513514" xlink:href="#block"/><use x="148.64864864865" y="13.513513513514" xlink:href="#block"/><use x="162.16216216216" y="13.513513513514" xlink:href="#block"/><use x="189.18918918919" y="13.513513513514" xlink:href="#block"/><use x="216.21621621622" y="13.513513513514" xlink:href="#block"/><use x="243.24324324324" y="13.513513513514" xlink:href="#block"/><use x="256.75675675676" y="13.513513513514" xlink:href="#block"/><use x="283.78378378378" y="13.513513513514" xlink:href="#block"/><use x="337.83783783784" y="13.513513513514" xlink:href="#block"/><use x="405.40540540541" y="13.513513513514" xlink:href="#block"/><use x="486.48648648649" y="13.513513513514" xlink:href="#block"/><use x="0" y="27.027027027027" xlink:href="#block"/><use x="27.027027027027" y="27.027027027027" xlink:href="#block"/><use x="40.540540540541" y="27.027027027027" xlink:href="#block"/><use x="54.054054054054" y="27.027027027027" xlink:href="#block"/><use x="81.081081081081" y="27.027027027027" xlink:href="#block"/><use x="121.62162162162" y="27.027027027027" xlink:href="#block"/><use x="162.16216216216" y="27.027027027027" xlink:href="#block"/><use x="189.18918918919" y="27.027027027027" xlink:href="#block"/><use x="202.7027027027" y="27.027027027027" xlink:href="#block"/><use x="229.72972972973" y="27.027027027027" xlink:href="#block"/><use x="243.24324324324" y="27.027027027027" xlink:href="#block"/><use x="270.27027027027" y="27.027027027027" xlink:href="#block"/><use x="283.78378378378" y="27.027027027027" xlink:href="#block"/><use x="310.81081081081" y="27.027027027027" xlink:href="#block"/><use x="324.32432432432" y="27.027027027027" xlink:href="#block"/><use x="364.86486486486" y="27.027027027027" xlink:href="#block"/><use x="405.40540540541" y="27.027027027027" xlink:href="#block"/><use x="432.43243243243" y="27.027027027027" xlink:href="#block"/><use x="445.94594594595" y="27.027027027027" xlink:href="#block"/><use x="459.45945945946" y="27.027027027027" xlink:href="#block"/><use x="486.48648648649" y="27.027027027027" xlink:href="#block"/><use x="0" y="40.540540540541" xlink:href="#block"/><use x="27.027027027027" y="40.540540540541" xlink:href="#block"/><use x="40.540540540541" y="40.540540540541" xlink:href="#block"/><use x="54.054054054054" y="40.540540540541" xlink:href="#block"/><use x="81.081081081081" y="40.540540540541" xlink:href="#block"/><use x="135.13513513514" y="40.540540540541" xlink:href="#block"/><use x="148.64864864865" y="40.540540540541" xlink:href="#block"/><use x="162.16216216216" y="40.540540540541" xlink:href="#block"/><use x="175.67567567568" y="40.540540540541" xlink:href="#block"/><use x="216.21621621622" y="40.540540540541" xlink:href="#block"/><use x="243.24324324324" y="40.540540540541" xlink:href="#block"/><use x="256.75675675676" y="40.540540540541" xlink:href="#block"/><use x="270.27027027027" y="40.540540540541" xlink:href="#block"/><use x="297.2972972973" y="40.540540540541" xlink:href="#block"/><use x="310.81081081081" y="40.540540540541" xlink:href="#block"/><use x="364.86486486486" y="40.540540540541" xlink:href="#block"/><use x="405.40540540541" y="40.540540540541" xlink:href="#block"/><use x="432.43243243243" y="40.540540540541" xlink:href="#block"/><use x="445.94594594595" y="40.540540540541" xlink:href="#block"/><use x="459.45945945946" y="40.540540540541" xlink:href="#block"/><use x="486.48648648649" y="40.540540540541" xlink:href="#block"/><use x="0" y="54.054054054054" xlink:href="#block"/><use x="27.027027027027" y="54.054054054054" xlink:href="#block"/><use x="40.540540540541" y="54.054054054054" xlink:href="#block"/><use x="54.054054054054" y="54.054054054054" xlink:href="#block"/><use x="81.081081081081" y="54.054054054054" xlink:href="#block"/><use x="108.10810810811" y="54.054054054054" xlink:href="#block"/><use x="121.62162162162" y="54.054054054054" xlink:href="#block"/><use x="270.27027027027" y="54.054054054054" xlink:href="#block"/><use x="283.78378378378" y="54.054054054054" xlink:href="#block"/><use x="297.2972972973" y="54.054054054054" xlink:href="#block"/><use x="310.81081081081" y="54.054054054054" xlink:href="#block"/><use x="351.35135135135" y="54.054054054054" xlink:href="#block"/><use x="364.86486486486" y="54.054054054054" xlink:href="#block"/><use x="405.40540540541" y="54.054054054054" xlink:href="#block"/><use x="432.43243243243" y="54.054054054054" xlink:href="#block"/><use x="445.94594594595" y="54.054054054054" xlink:href="#block"/><use x="459.45945945946" y="54.054054054054" xlink:href="#block"/><use x="486.48648648649" y="54.054054054054" xlink:href="#block"/><use x="0" y="67.567567567568" xlink:href="#block"/><use x="81.081081081081" y="67.567567567568" xlink:href="#block"/><use x="135.13513513514" y="67.567567567568" xlink:href="#block"/><use x="162.16216216216" y="67.567567567568" xlink:href="#block"/><use x="175.67567567568" y="67.567567567568" xlink:href="#block"/><use x="216.21621621622" y="67.567567567568" xlink:href="#block"/><use x="229.72972972973" y="67.567567567568" xlink:href="#block"/><use x="270.27027027027" y="67.567567567568" xlink:href="#block"/><use x="283.78378378378" y="67.567567567568" xlink:href="#block"/><use x="324.32432432432" y="67.567567567568" xlink:href="#block"/><use x="337.83783783784" y="67.567567567568" xlink:href="#block"/><use x="364.86486486486" y="67.567567567568" xlink:href="#block"/><use x="405.40540540541" y="67.567567567568" xlink:href="#block"/><use x="486.48648648649" y="67.567567567568" xlink:href="#block"/><use x="0" y="81.081081081081" xlink:href="#block"/><use x="13.513513513514" y="81.081081081081" xlink:href="#block"/><use x="27.027027027027" y="81.081081081081" xlink:href="#block"/><use x="40.540540540541" y="81.081081081081" xlink:href="#block"/><use x="54.054054054054" y="81.081081081081" xlink:href="#block"/><use x="67.567567567568" y="81.081081081081" xlink:href="#block"/><use x="81.081081081081" y="81.081081081081" xlink:href="#block"/><use x="108.10810810811" y="81.081081081081" xlink:href="#block"/><use x="135.13513513514" y="81.081081081081" xlink:href="#block"/><use x="162.16216216216" y="81.081081081081" xlink:href="#block"/><use x="189.18918918919" y="81.081081081081" xlink:href="#block"/><use x="216.21621621622" y="81.081081081081" xlink:href="#block"/><use x="243.24324324324" y="81.081081081081" xlink:href="#block"/><use x="270.27027027027" y="81.081081081081" xlink:href="#block"/><use x="297.2972972973" y="81.081081081081" xlink:href="#block"/><use x="324.32432432432" y="81.081081081081" xlink:href="#block"/><use x="351.35135135135" y="81.081081081081" xlink:href="#block"/><use x="378.37837837838" y="81.081081081081" xlink:href="#block"/><use x="405.40540540541" y="81.081081081081" xlink:href="#block"/><use x="418.91891891892" y="81.081081081081" xlink:href="#block"/><use x="432.43243243243" y="81.081081081081" xlink:href="#block"/><use x="445.94594594595" y="81.081081081081" xlink:href="#block"/><use x="459.45945945946" y="81.081081081081" xlink:href="#block"/><use x="472.97297297297" y="81.081081081081" xlink:href="#block"/><use x="486.48648648649" y="81.081081081081" xlink:href="#block"/><use x="108.10810810811" y="94.594594594595" xlink:href="#block"/><use x="121.62162162162" y="94.594594594595" xlink:href="#block"/><use x="162.16216216216" y="94.594594594595" xlink:href="#block"/><use x="202.7027027027" y="94.594594594595" xlink:href="#block"/><use x="216.21621621622" y="94.594594594595" xlink:href="#block"/><use x="229.72972972973" y="94.594594594595" xlink:href="#block"/><use x="243.24324324324" y="94.594594594595" xlink:href="#block"/><use x="283.78378378378" y="94.594594594595" xlink:href="#block"/><use x="324.32432432432" y="94.594594594595" xlink:href="#block"/><use x="364.86486486486" y="94.594594594595" xlink:href="#block"/><use x="27.027027027027" y="108.10810810811" xlink:href="#block"/><use x="40.540540540541" y="108.10810810811" xlink:href="#block"/><use x="81.081081081081" y="108.10810810811" xlink:href="#block"/><use x="94.594594594595" y="108.10810810811" xlink:href="#block"/><use x="108.10810810811" y="108.10810810811" xlink:href="#block"/><use x="148.64864864865" y="108.10810810811" xlink:href="#block"/><use x="162.16216216216" y="108.10810810811" xlink:href="#block"/><use x="175.67567567568" y="108.10810810811" xlink:href="#block"/><use x="189.18918918919" y="108.10810810811" xlink:href="#block"/><use x="202.7027027027" y="108.10810810811" xlink:href="#block"/><use x="216.21621621622" y="108.10810810811" xlink:href="#block"/><use x="243.24324324324" y="108.10810810811" xlink:href="#block"/><use x="283.78378378378" y="108.10810810811" xlink:href="#block"/><use x="297.2972972973" y="108.10810810811" xlink:href="#block"/><use x="324.32432432432" y="108.10810810811" xlink:href="#block"/><use x="337.83783783784" y="108.10810810811" xlink:href="#block"/><use x="378.37837837838" y="108.10810810811" xlink:href="#block"/><use x="391.89189189189" y="108.10810810811" xlink:href="#block"/><use x="405.40540540541" y="108.10810810811" xlink:href="#block"/><use x="432.43243243243" y="108.10810810811" xlink:href="#block"/><use x="0" y="121.62162162162" xlink:href="#block"/><use x="108.10810810811" y="121.62162162162" xlink:href="#block"/><use x="175.67567567568" y="121.62162162162" xlink:href="#block"/><use x="189.18918918919" y="121.62162162162" xlink:href="#block"/><use x="202.7027027027" y="121.62162162162" xlink:href="#block"/><use x="216.21621621622" y="121.62162162162" xlink:href="#block"/><use x="256.75675675676" y="121.62162162162" xlink:href="#block"/><use x="297.2972972973" y="121.62162162162" xlink:href="#block"/><use x="351.35135135135" y="121.62162162162" xlink:href="#block"/><use x="364.86486486486" y="121.62162162162" xlink:href="#block"/><use x="378.37837837838" y="121.62162162162" xlink:href="#block"/><use x="391.89189189189" y="121.62162162162" xlink:href="#block"/><use x="405.40540540541" y="121.62162162162" xlink:href="#block"/><use x="472.97297297297" y="121.62162162162" xlink:href="#block"/><use x="486.48648648649" y="121.62162162162" xlink:href="#block"/><use x="13.513513513514" y="135.13513513514" xlink:href="#block"/><use x="27.027027027027" y="135.13513513514" xlink:href="#block"/><use x="40.540540540541" y="135.13513513514" xlink:href="#block"/><use x="54.054054054054" y="135.13513513514" xlink:href="#block"/><use x="81.081081081081" y="135.13513513514" xlink:href="#block"/><use x="94.594594594595" y="135.13513513514" xlink:href="#block"/><use x="108.10810810811" y="135.13513513514" xlink:href="#block"/><use x="121.62162162162" y="135.13513513514" xlink:href="#block"/><use x="148.64864864865" y="135.13513513514" xlink:href="#block"/><use x="162.16216216216" y="135.13513513514" xlink:href="#block"/><use x="175.67567567568" y="135.13513513514" xlink:href="#block"/><use x="189.18918918919" y="135.13513513514" xlink:href="#block"/><use x="270.27027027027" y="135.13513513514" xlink:href="#block"/><use x="310.81081081081" y="135.13513513514" xlink:href="#block"/><use x="324.32432432432" y="135.13513513514" xlink:href="#block"/><use x="337.83783783784" y="135.13513513514" xlink:href="#block"/><use x="351.35135135135" y="135.13513513514" xlink:href="#block"/><use x="364.86486486486" y="135.13513513514" xlink:href="#block"/><use x="418.91891891892" y="135.13513513514" xlink:href="#block"/><use x="432.43243243243" y="135.13513513514" xlink:href="#block"/><use x="459.45945945946" y="135.13513513514" xlink:href="#block"/><use x="472.97297297297" y="135.13513513514" xlink:href="#block"/><use x="486.48648648649" y="135.13513513514" xlink:href="#block"/><use x="0" y="148.64864864865" xlink:href="#block"/><use x="27.027027027027" y="148.64864864865" xlink:href="#block"/><use x="94.594594594595" y="148.64864864865" xlink:href="#block"/><use x="108.10810810811" y="148.64864864865" xlink:href="#block"/><use x="121.62162162162" y="148.64864864865" xlink:href="#block"/><use x="256.75675675676" y="148.64864864865" xlink:href="#block"/><use x="310.81081081081" y="148.64864864865" xlink:href="#block"/><use x="364.86486486486" y="148.64864864865" xlink:href="#block"/><use x="391.89189189189" y="148.64864864865" xlink:href="#block"/><use x="405.40540540541" y="148.64864864865" xlink:href="#block"/><use x="418.91891891892" y="148.64864864865" xlink:href="#block"/><use x="445.94594594595" y="148.64864864865" xlink:href="#block"/><use x="486.48648648649" y="148.64864864865" xlink:href="#block"/><use x="67.567567567568" y="162.16216216216" xlink:href="#block"/><use x="81.081081081081" y="162.16216216216" xlink:href="#block"/><use x="108.10810810811" y="162.16216216216" xlink:href="#block"/><use x="121.62162162162" y="162.16216216216" xlink:href="#block"/><use x="148.64864864865" y="162.16216216216" xlink:href="#block"/><use x="175.67567567568" y="162.16216216216" xlink:href="#block"/><use x="202.7027027027" y="162.16216216216" xlink:href="#block"/><use x="243.24324324324" y="162.16216216216" xlink:href="#block"/><use x="256.75675675676" y="162.16216216216" xlink:href="#block"/><use x="310.81081081081" y="162.16216216216" xlink:href="#block"/><use x="337.83783783784" y="162.16216216216" xlink:href="#block"/><use x="351.35135135135" y="162.16216216216" xlink:href="#block"/><use x="391.89189189189" y="162.16216216216" xlink:href="#block"/><use x="405.40540540541" y="162.16216216216" xlink:href="#block"/><use x="432.43243243243" y="162.16216216216" xlink:href="#block"/><use x="459.45945945946" y="162.16216216216" xlink:href="#block"/><use x="472.97297297297" y="162.16216216216" xlink:href="#block"/><use x="486.48648648649" y="162.16216216216" xlink:href="#block"/><use x="27.027027027027" y="175.67567567568" xlink:href="#block"/><use x="40.540540540541" y="175.67567567568" xlink:href="#block"/><use x="54.054054054054" y="175.67567567568" xlink:href="#block"/><use x="108.10810810811" y="175.67567567568" xlink:href="#block"/><use x="121.62162162162" y="175.67567567568" xlink:href="#block"/><use x="216.21621621622" y="175.67567567568" xlink:href="#block"/><use x="256.75675675676" y="175.67567567568" xlink:href="#block"/><use x="270.27027027027" y="175.67567567568" xlink:href="#block"/><use x="283.78378378378" y="175.67567567568" xlink:href="#block"/><use x="297.2972972973" y="175.67567567568" xlink:href="#block"/><use x="324.32432432432" y="175.67567567568" xlink:href="#block"/><use x="378.37837837838" y="175.67567567568" xlink:href="#block"/><use x="391.89189189189" y="175.67567567568" xlink:href="#block"/><use x="418.91891891892" y="175.67567567568" xlink:href="#block"/><use x="472.97297297297" y="175.67567567568" xlink:href="#block"/><use x="67.567567567568" y="189.18918918919" xlink:href="#block"/><use x="81.081081081081" y="189.18918918919" xlink:href="#block"/><use x="94.594594594595" y="189.18918918919" xlink:href="#block"/><use x="108.10810810811" y="189.18918918919" xlink:href="#block"/><use x="135.13513513514" y="189.18918918919" xlink:href="#block"/><use x="175.67567567568" y="189.18918918919" xlink:href="#block"/><use x="189.18918918919" y="189.18918918919" xlink:href="#block"/><use x="202.7027027027" y="189.18918918919" xlink:href="#block"/><use x="216.21621621622" y="189.18918918919" xlink:href="#block"/><use x="229.72972972973" y="189.18918918919" xlink:href="#block"/><use x="256.75675675676" y="189.18918918919" xlink:href="#block"/><use x="283.78378378378" y="189.18918918919" xlink:href="#block"/><use x="297.2972972973" y="189.18918918919" xlink:href="#block"/><use x="351.35135135135" y="189.18918918919" xlink:href="#block"/><use x="391.89189189189" y="189.18918918919" xlink:href="#block"/><use x="418.91891891892" y="189.18918918919" xlink:href="#block"/><use x="432.43243243243" y="189.18918918919" xlink:href="#block"/><use x="472.97297297297" y="189.18918918919" xlink:href="#block"/><use x="0" y="202.7027027027" xlink:href="#block"/><use x="13.513513513514" y="202.7027027027" xlink:href="#block"/><use x="27.027027027027" y="202.7027027027" xlink:href="#block"/><use x="40.540540540541" y="202.7027027027" xlink:href="#block"/><use x="67.567567567568" y="202.7027027027" xlink:href="#block"/><use x="94.594594594595" y="202.7027027027" xlink:href="#block"/><use x="108.10810810811" y="202.7027027027" xlink:href="#block"/><use x="135.13513513514" y="202.7027027027" xlink:href="#block"/><use x="148.64864864865" y="202.7027027027" xlink:href="#block"/><use x="162.16216216216" y="202.7027027027" xlink:href="#block"/><use x="189.18918918919" y="202.7027027027" xlink:href="#block"/><use x="202.7027027027" y="202.7027027027" xlink:href="#block"/><use x="216.21621621622" y="202.7027027027" xlink:href="#block"/><use x="229.72972972973" y="202.7027027027" xlink:href="#block"/><use x="243.24324324324" y="202.7027027027" xlink:href="#block"/><use x="256.75675675676" y="202.7027027027" xlink:href="#block"/><use x="283.78378378378" y="202.7027027027" xlink:href="#block"/><use x="297.2972972973" y="202.7027027027" xlink:href="#block"/><use x="351.35135135135" y="202.7027027027" xlink:href="#block"/><use x="378.37837837838" y="202.7027027027" xlink:href="#block"/><use x="445.94594594595" y="202.7027027027" xlink:href="#block"/><use x="472.97297297297" y="202.7027027027" xlink:href="#block"/><use x="0" y="216.21621621622" xlink:href="#block"/><use x="13.513513513514" y="216.21621621622" xlink:href="#block"/><use x="54.054054054054" y="216.21621621622" xlink:href="#block"/><use x="81.081081081081" y="216.21621621622" xlink:href="#block"/><use x="148.64864864865" y="216.21621621622" xlink:href="#block"/><use x="162.16216216216" y="216.21621621622" xlink:href="#block"/><use x="202.7027027027" y="216.21621621622" xlink:href="#block"/><use x="216.21621621622" y="216.21621621622" xlink:href="#block"/><use x="256.75675675676" y="216.21621621622" xlink:href="#block"/><use x="283.78378378378" y="216.21621621622" xlink:href="#block"/><use x="310.81081081081" y="216.21621621622" xlink:href="#block"/><use x="337.83783783784" y="216.21621621622" xlink:href="#block"/><use x="351.35135135135" y="216.21621621622" xlink:href="#block"/><use x="405.40540540541" y="216.21621621622" xlink:href="#block"/><use x="418.91891891892" y="216.21621621622" xlink:href="#block"/><use x="432.43243243243" y="216.21621621622" xlink:href="#block"/><use x="445.94594594595" y="216.21621621622" xlink:href="#block"/><use x="0" y="229.72972972973" xlink:href="#block"/><use x="13.513513513514" y="229.72972972973" xlink:href="#block"/><use x="108.10810810811" y="229.72972972973" xlink:href="#block"/><use x="121.62162162162" y="229.72972972973" xlink:href="#block"/><use x="162.16216216216" y="229.72972972973" xlink:href="#block"/><use x="175.67567567568" y="229.72972972973" xlink:href="#block"/><use x="216.21621621622" y="229.72972972973" xlink:href="#block"/><use x="270.27027027027" y="229.72972972973" xlink:href="#block"/><use x="283.78378378378" y="229.72972972973" xlink:href="#block"/><use x="297.2972972973" y="229.72972972973" xlink:href="#block"/><use x="310.81081081081" y="229.72972972973" xlink:href="#block"/><use x="337.83783783784" y="229.72972972973" xlink:href="#block"/><use x="364.86486486486" y="229.72972972973" xlink:href="#block"/><use x="405.40540540541" y="229.72972972973" xlink:href="#block"/><use x="418.91891891892" y="229.72972972973" xlink:href="#block"/><use x="445.94594594595" y="229.72972972973" xlink:href="#block"/><use x="459.45945945946" y="229.72972972973" xlink:href="#block"/><use x="0" y="243.24324324324" xlink:href="#block"/><use x="27.027027027027" y="243.24324324324" xlink:href="#block"/><use x="54.054054054054" y="243.24324324324" xlink:href="#block"/><use x="81.081081081081" y="243.24324324324" xlink:href="#block"/><use x="94.594594594595" y="243.24324324324" xlink:href="#block"/><use x="135.13513513514" y="243.24324324324" xlink:href="#block"/><use x="175.67567567568" y="243.24324324324" xlink:href="#block"/><use x="189.18918918919" y="243.24324324324" xlink:href="#block"/><use x="202.7027027027" y="243.24324324324" xlink:href="#block"/><use x="243.24324324324" y="243.24324324324" xlink:href="#block"/><use x="283.78378378378" y="243.24324324324" xlink:href="#block"/><use x="297.2972972973" y="243.24324324324" xlink:href="#block"/><use x="310.81081081081" y="243.24324324324" xlink:href="#block"/><use x="337.83783783784" y="243.24324324324" xlink:href="#block"/><use x="351.35135135135" y="243.24324324324" xlink:href="#block"/><use x="391.89189189189" y="243.24324324324" xlink:href="#block"/><use x="405.40540540541" y="243.24324324324" xlink:href="#block"/><use x="432.43243243243" y="243.24324324324" xlink:href="#block"/><use x="445.94594594595" y="243.24324324324" xlink:href="#block"/><use x="459.45945945946" y="243.24324324324" xlink:href="#block"/><use x="472.97297297297" y="243.24324324324" xlink:href="#block"/><use x="486.48648648649" y="243.24324324324" xlink:href="#block"/><use x="67.567567567568" y="256.75675675676" xlink:href="#block"/><use x="94.594594594595" y="256.75675675676" xlink:href="#block"/><use x="108.10810810811" y="256.75675675676" xlink:href="#block"/><use x="148.64864864865" y="256.75675675676" xlink:href="#block"/><use x="162.16216216216" y="256.75675675676" xlink:href="#block"/><use x="175.67567567568" y="256.75675675676" xlink:href="#block"/><use x="229.72972972973" y="256.75675675676" xlink:href="#block"/><use x="270.27027027027" y="256.75675675676" xlink:href="#block"/><use x="283.78378378378" y="256.75675675676" xlink:href="#block"/><use x="364.86486486486" y="256.75675675676" xlink:href="#block"/><use x="378.37837837838" y="256.75675675676" xlink:href="#block"/><use x="391.89189189189" y="256.75675675676" xlink:href="#block"/><use x="405.40540540541" y="256.75675675676" xlink:href="#block"/><use x="418.91891891892" y="256.75675675676" xlink:href="#block"/><use x="432.43243243243" y="256.75675675676" xlink:href="#block"/><use x="445.94594594595" y="256.75675675676" xlink:href="#block"/><use x="472.97297297297" y="256.75675675676" xlink:href="#block"/><use x="486.48648648649" y="256.75675675676" xlink:href="#block"/><use x="13.513513513514" y="270.27027027027" xlink:href="#block"/><use x="27.027027027027" y="270.27027027027" xlink:href="#block"/><use x="54.054054054054" y="270.27027027027" xlink:href="#block"/><use x="67.567567567568" y="270.27027027027" xlink:href="#block"/><use x="81.081081081081" y="270.27027027027" xlink:href="#block"/><use x="121.62162162162" y="270.27027027027" xlink:href="#block"/><use x="175.67567567568" y="270.27027027027" xlink:href="#block"/><use x="189.18918918919" y="270.27027027027" xlink:href="#block"/><use x="202.7027027027" y="270.27027027027" xlink:href="#block"/><use x="229.72972972973" y="270.27027027027" xlink:href="#block"/><use x="256.75675675676" y="270.27027027027" xlink:href="#block"/><use x="270.27027027027" y="270.27027027027" xlink:href="#block"/><use x="297.2972972973" y="270.27027027027" xlink:href="#block"/><use x="324.32432432432" y="270.27027027027" xlink:href="#block"/><use x="337.83783783784" y="270.27027027027" xlink:href="#block"/><use x="351.35135135135" y="270.27027027027" xlink:href="#block"/><use x="391.89189189189" y="270.27027027027" xlink:href="#block"/><use x="418.91891891892" y="270.27027027027" xlink:href="#block"/><use x="445.94594594595" y="270.27027027027" xlink:href="#block"/><use x="459.45945945946" y="270.27027027027" xlink:href="#block"/><use x="486.48648648649" y="270.27027027027" xlink:href="#block"/><use x="27.027027027027" y="283.78378378378" xlink:href="#block"/><use x="54.054054054054" y="283.78378378378" xlink:href="#block"/><use x="67.567567567568" y="283.78378378378" xlink:href="#block"/><use x="108.10810810811" y="283.78378378378" xlink:href="#block"/><use x="121.62162162162" y="283.78378378378" xlink:href="#block"/><use x="148.64864864865" y="283.78378378378" xlink:href="#block"/><use x="175.67567567568" y="283.78378378378" xlink:href="#block"/><use x="189.18918918919" y="283.78378378378" xlink:href="#block"/><use x="202.7027027027" y="283.78378378378" xlink:href="#block"/><use x="216.21621621622" y="283.78378378378" xlink:href="#block"/><use x="229.72972972973" y="283.78378378378" xlink:href="#block"/><use x="243.24324324324" y="283.78378378378" xlink:href="#block"/><use x="256.75675675676" y="283.78378378378" xlink:href="#block"/><use x="283.78378378378" y="283.78378378378" xlink:href="#block"/><use x="310.81081081081" y="283.78378378378" xlink:href="#block"/><use x="337.83783783784" y="283.78378378378" xlink:href="#block"/><use x="351.35135135135" y="283.78378378378" xlink:href="#block"/><use x="391.89189189189" y="283.78378378378" xlink:href="#block"/><use x="418.91891891892" y="283.78378378378" xlink:href="#block"/><use x="472.97297297297" y="283.78378378378" xlink:href="#block"/><use x="486.48648648649" y="283.78378378378" xlink:href="#block"/><use x="13.513513513514" y="297.2972972973" xlink:href="#block"/><use x="40.540540540541" y="297.2972972973" xlink:href="#block"/><use x="54.054054054054" y="297.2972972973" xlink:href="#block"/><use x="81.081081081081" y="297.2972972973" xlink:href="#block"/><use x="94.594594594595" y="297.2972972973" xlink:href="#block"/><use x="121.62162162162" y="297.2972972973" xlink:href="#block"/><use x="148.64864864865" y="297.2972972973" xlink:href="#block"/><use x="175.67567567568" y="297.2972972973" xlink:href="#block"/><use x="229.72972972973" y="297.2972972973" xlink:href="#block"/><use x="283.78378378378" y="297.2972972973" xlink:href="#block"/><use x="297.2972972973" y="297.2972972973" xlink:href="#block"/><use x="310.81081081081" y="297.2972972973" xlink:href="#block"/><use x="324.32432432432" y="297.2972972973" xlink:href="#block"/><use x="337.83783783784" y="297.2972972973" xlink:href="#block"/><use x="378.37837837838" y="297.2972972973" xlink:href="#block"/><use x="405.40540540541" y="297.2972972973" xlink:href="#block"/><use x="418.91891891892" y="297.2972972973" xlink:href="#block"/><use x="459.45945945946" y="297.2972972973" xlink:href="#block"/><use x="472.97297297297" y="297.2972972973" xlink:href="#block"/><use x="486.48648648649" y="297.2972972973" xlink:href="#block"/><use x="94.594594594595" y="310.81081081081" xlink:href="#block"/><use x="135.13513513514" y="310.81081081081" xlink:href="#block"/><use x="148.64864864865" y="310.81081081081" xlink:href="#block"/><use x="162.16216216216" y="310.81081081081" xlink:href="#block"/><use x="189.18918918919" y="310.81081081081" xlink:href="#block"/><use x="229.72972972973" y="310.81081081081" xlink:href="#block"/><use x="243.24324324324" y="310.81081081081" xlink:href="#block"/><use x="256.75675675676" y="310.81081081081" xlink:href="#block"/><use x="283.78378378378" y="310.81081081081" xlink:href="#block"/><use x="297.2972972973" y="310.81081081081" xlink:href="#block"/><use x="310.81081081081" y="310.81081081081" xlink:href="#block"/><use x="324.32432432432" y="310.81081081081" xlink:href="#block"/><use x="364.86486486486" y="310.81081081081" xlink:href="#block"/><use x="405.40540540541" y="310.81081081081" xlink:href="#block"/><use x="445.94594594595" y="310.81081081081" xlink:href="#block"/><use x="486.48648648649" y="310.81081081081" xlink:href="#block"/><use x="13.513513513514" y="324.32432432432" xlink:href="#block"/><use x="27.027027027027" y="324.32432432432" xlink:href="#block"/><use x="40.540540540541" y="324.32432432432" xlink:href="#block"/><use x="67.567567567568" y="324.32432432432" xlink:href="#block"/><use x="81.081081081081" y="324.32432432432" xlink:href="#block"/><use x="108.10810810811" y="324.32432432432" xlink:href="#block"/><use x="162.16216216216" y="324.32432432432" xlink:href="#block"/><use x="189.18918918919" y="324.32432432432" xlink:href="#block"/><use x="229.72972972973" y="324.32432432432" xlink:href="#block"/><use x="256.75675675676" y="324.32432432432" xlink:href="#block"/><use x="270.27027027027" y="324.32432432432" xlink:href="#block"/><use x="283.78378378378" y="324.32432432432" xlink:href="#block"/><use x="297.2972972973" y="324.32432432432" xlink:href="#block"/><use x="310.81081081081" y="324.32432432432" xlink:href="#block"/><use x="324.32432432432" y="324.32432432432" xlink:href="#block"/><use x="351.35135135135" y="324.32432432432" xlink:href="#block"/><use x="364.86486486486" y="324.32432432432" xlink:href="#block"/><use x="378.37837837838" y="324.32432432432" xlink:href="#block"/><use x="391.89189189189" y="324.32432432432" xlink:href="#block"/><use x="445.94594594595" y="324.32432432432" xlink:href="#block"/><use x="459.45945945946" y="324.32432432432" xlink:href="#block"/><use x="472.97297297297" y="324.32432432432" xlink:href="#block"/><use x="486.48648648649" y="324.32432432432" xlink:href="#block"/><use x="40.540540540541" y="337.83783783784" xlink:href="#block"/><use x="162.16216216216" y="337.83783783784" xlink:href="#block"/><use x="189.18918918919" y="337.83783783784" xlink:href="#block"/><use x="202.7027027027" y="337.83783783784" xlink:href="#block"/><use x="229.72972972973" y="337.83783783784" xlink:href="#block"/><use x="256.75675675676" y="337.83783783784" xlink:href="#block"/><use x="283.78378378378" y="337.83783783784" xlink:href="#block"/><use x="297.2972972973" y="337.83783783784" xlink:href="#block"/><use x="310.81081081081" y="337.83783783784" xlink:href="#block"/><use x="324.32432432432" y="337.83783783784" xlink:href="#block"/><use x="351.35135135135" y="337.83783783784" xlink:href="#block"/><use x="391.89189189189" y="337.83783783784" xlink:href="#block"/><use x="418.91891891892" y="337.83783783784" xlink:href="#block"/><use x="472.97297297297" y="337.83783783784" xlink:href="#block"/><use x="13.513513513514" y="351.35135135135" xlink:href="#block"/><use x="40.540540540541" y="351.35135135135" xlink:href="#block"/><use x="67.567567567568" y="351.35135135135" xlink:href="#block"/><use x="81.081081081081" y="351.35135135135" xlink:href="#block"/><use x="135.13513513514" y="351.35135135135" xlink:href="#block"/><use x="162.16216216216" y="351.35135135135" xlink:href="#block"/><use x="189.18918918919" y="351.35135135135" xlink:href="#block"/><use x="202.7027027027" y="351.35135135135" xlink:href="#block"/><use x="216.21621621622" y="351.35135135135" xlink:href="#block"/><use x="243.24324324324" y="351.35135135135" xlink:href="#block"/><use x="256.75675675676" y="351.35135135135" xlink:href="#block"/><use x="270.27027027027" y="351.35135135135" xlink:href="#block"/><use x="283.78378378378" y="351.35135135135" xlink:href="#block"/><use x="310.81081081081" y="351.35135135135" xlink:href="#block"/><use x="391.89189189189" y="351.35135135135" xlink:href="#block"/><use x="418.91891891892" y="351.35135135135" xlink:href="#block"/><use x="432.43243243243" y="351.35135135135" xlink:href="#block"/><use x="459.45945945946" y="351.35135135135" xlink:href="#block"/><use x="472.97297297297" y="351.35135135135" xlink:href="#block"/><use x="0" y="364.86486486486" xlink:href="#block"/><use x="27.027027027027" y="364.86486486486" xlink:href="#block"/><use x="94.594594594595" y="364.86486486486" xlink:href="#block"/><use x="121.62162162162" y="364.86486486486" xlink:href="#block"/><use x="135.13513513514" y="364.86486486486" xlink:href="#block"/><use x="148.64864864865" y="364.86486486486" xlink:href="#block"/><use x="175.67567567568" y="364.86486486486" xlink:href="#block"/><use x="202.7027027027" y="364.86486486486" xlink:href="#block"/><use x="270.27027027027" y="364.86486486486" xlink:href="#block"/><use x="297.2972972973" y="364.86486486486" xlink:href="#block"/><use x="310.81081081081" y="364.86486486486" xlink:href="#block"/><use x="337.83783783784" y="364.86486486486" xlink:href="#block"/><use x="364.86486486486" y="364.86486486486" xlink:href="#block"/><use x="391.89189189189" y="364.86486486486" xlink:href="#block"/><use x="418.91891891892" y="364.86486486486" xlink:href="#block"/><use x="432.43243243243" y="364.86486486486" xlink:href="#block"/><use x="445.94594594595" y="364.86486486486" xlink:href="#block"/><use x="472.97297297297" y="364.86486486486" xlink:href="#block"/><use x="81.081081081081" y="378.37837837838" xlink:href="#block"/><use x="94.594594594595" y="378.37837837838" xlink:href="#block"/><use x="108.10810810811" y="378.37837837838" xlink:href="#block"/><use x="121.62162162162" y="378.37837837838" xlink:href="#block"/><use x="202.7027027027" y="378.37837837838" xlink:href="#block"/><use x="216.21621621622" y="378.37837837838" xlink:href="#block"/><use x="256.75675675676" y="378.37837837838" xlink:href="#block"/><use x="270.27027027027" y="378.37837837838" xlink:href="#block"/><use x="283.78378378378" y="378.37837837838" xlink:href="#block"/><use x="337.83783783784" y="378.37837837838" xlink:href="#block"/><use x="378.37837837838" y="378.37837837838" xlink:href="#block"/><use x="391.89189189189" y="378.37837837838" xlink:href="#block"/><use x="405.40540540541" y="378.37837837838" xlink:href="#block"/><use x="418.91891891892" y="378.37837837838" xlink:href="#block"/><use x="432.43243243243" y="378.37837837838" xlink:href="#block"/><use x="108.10810810811" y="391.89189189189" xlink:href="#block"/><use x="121.62162162162" y="391.89189189189" xlink:href="#block"/><use x="148.64864864865" y="391.89189189189" xlink:href="#block"/><use x="162.16216216216" y="391.89189189189" xlink:href="#block"/><use x="175.67567567568" y="391.89189189189" xlink:href="#block"/><use x="202.7027027027" y="391.89189189189" xlink:href="#block"/><use x="229.72972972973" y="391.89189189189" xlink:href="#block"/><use x="270.27027027027" y="391.89189189189" xlink:href="#block"/><use x="297.2972972973" y="391.89189189189" xlink:href="#block"/><use x="310.81081081081" y="391.89189189189" xlink:href="#block"/><use x="324.32432432432" y="391.89189189189" xlink:href="#block"/><use x="337.83783783784" y="391.89189189189" xlink:href="#block"/><use x="351.35135135135" y="391.89189189189" xlink:href="#block"/><use x="364.86486486486" y="391.89189189189" xlink:href="#block"/><use x="378.37837837838" y="391.89189189189" xlink:href="#block"/><use x="432.43243243243" y="391.89189189189" xlink:href="#block"/><use x="445.94594594595" y="391.89189189189" xlink:href="#block"/><use x="459.45945945946" y="391.89189189189" xlink:href="#block"/><use x="472.97297297297" y="391.89189189189" xlink:href="#block"/><use x="486.48648648649" y="391.89189189189" xlink:href="#block"/><use x="0" y="405.40540540541" xlink:href="#block"/><use x="13.513513513514" y="405.40540540541" xlink:href="#block"/><use x="27.027027027027" y="405.40540540541" xlink:href="#block"/><use x="40.540540540541" y="405.40540540541" xlink:href="#block"/><use x="54.054054054054" y="405.40540540541" xlink:href="#block"/><use x="67.567567567568" y="405.40540540541" xlink:href="#block"/><use x="81.081081081081" y="405.40540540541" xlink:href="#block"/><use x="108.10810810811" y="405.40540540541" xlink:href="#block"/><use x="148.64864864865" y="405.40540540541" xlink:href="#block"/><use x="216.21621621622" y="405.40540540541" xlink:href="#block"/><use x="229.72972972973" y="405.40540540541" xlink:href="#block"/><use x="256.75675675676" y="405.40540540541" xlink:href="#block"/><use x="270.27027027027" y="405.40540540541" xlink:href="#block"/><use x="283.78378378378" y="405.40540540541" xlink:href="#block"/><use x="310.81081081081" y="405.40540540541" xlink:href="#block"/><use x="324.32432432432" y="405.40540540541" xlink:href="#block"/><use x="337.83783783784" y="405.40540540541" xlink:href="#block"/><use x="351.35135135135" y="405.40540540541" xlink:href="#block"/><use x="364.86486486486" y="405.40540540541" xlink:href="#block"/><use x="378.37837837838" y="405.40540540541" xlink:href="#block"/><use x="405.40540540541" y="405.40540540541" xlink:href="#block"/><use x="432.43243243243" y="405.40540540541" xlink:href="#block"/><use x="445.94594594595" y="405.40540540541" xlink:href="#block"/><use x="459.45945945946" y="405.40540540541" xlink:href="#block"/><use x="486.48648648649" y="405.40540540541" xlink:href="#block"/><use x="0" y="418.91891891892" xlink:href="#block"/><use x="81.081081081081" y="418.91891891892" xlink:href="#block"/><use x="135.13513513514" y="418.91891891892" xlink:href="#block"/><use x="162.16216216216" y="418.91891891892" xlink:href="#block"/><use x="175.67567567568" y="418.91891891892" xlink:href="#block"/><use x="229.72972972973" y="418.91891891892" xlink:href="#block"/><use x="243.24324324324" y="418.91891891892" xlink:href="#block"/><use x="283.78378378378" y="418.91891891892" xlink:href="#block"/><use x="297.2972972973" y="418.91891891892" xlink:href="#block"/><use x="351.35135135135" y="418.91891891892" xlink:href="#block"/><use x="378.37837837838" y="418.91891891892" xlink:href="#block"/><use x="432.43243243243" y="418.91891891892" xlink:href="#block"/><use x="459.45945945946" y="418.91891891892" xlink:href="#block"/><use x="486.48648648649" y="418.91891891892" xlink:href="#block"/><use x="0" y="432.43243243243" xlink:href="#block"/><use x="27.027027027027" y="432.43243243243" xlink:href="#block"/><use x="40.540540540541" y="432.43243243243" xlink:href="#block"/><use x="54.054054054054" y="432.43243243243" xlink:href="#block"/><use x="81.081081081081" y="432.43243243243" xlink:href="#block"/><use x="135.13513513514" y="432.43243243243" xlink:href="#block"/><use x="148.64864864865" y="432.43243243243" xlink:href="#block"/><use x="162.16216216216" y="432.43243243243" xlink:href="#block"/><use x="189.18918918919" y="432.43243243243" xlink:href="#block"/><use x="202.7027027027" y="432.43243243243" xlink:href="#block"/><use x="216.21621621622" y="432.43243243243" xlink:href="#block"/><use x="243.24324324324" y="432.43243243243" xlink:href="#block"/><use x="256.75675675676" y="432.43243243243" xlink:href="#block"/><use x="270.27027027027" y="432.43243243243" xlink:href="#block"/><use x="297.2972972973" y="432.43243243243" xlink:href="#block"/><use x="324.32432432432" y="432.43243243243" xlink:href="#block"/><use x="337.83783783784" y="432.43243243243" xlink:href="#block"/><use x="351.35135135135" y="432.43243243243" xlink:href="#block"/><use x="364.86486486486" y="432.43243243243" xlink:href="#block"/><use x="378.37837837838" y="432.43243243243" xlink:href="#block"/><use x="391.89189189189" y="432.43243243243" xlink:href="#block"/><use x="405.40540540541" y="432.43243243243" xlink:href="#block"/><use x="418.91891891892" y="432.43243243243" xlink:href="#block"/><use x="432.43243243243" y="432.43243243243" xlink:href="#block"/><use x="459.45945945946" y="432.43243243243" xlink:href="#block"/><use x="472.97297297297" y="432.43243243243" xlink:href="#block"/><use x="0" y="445.94594594595" xlink:href="#block"/><use x="27.027027027027" y="445.94594594595" xlink:href="#block"/><use x="40.540540540541" y="445.94594594595" xlink:href="#block"/><use x="54.054054054054" y="445.94594594595" xlink:href="#block"/><use x="81.081081081081" y="445.94594594595" xlink:href="#block"/><use x="108.10810810811" y="445.94594594595" xlink:href="#block"/><use x="121.62162162162" y="445.94594594595" xlink:href="#block"/><use x="148.64864864865" y="445.94594594595" xlink:href="#block"/><use x="162.16216216216" y="445.94594594595" xlink:href="#block"/><use x="189.18918918919" y="445.94594594595" xlink:href="#block"/><use x="216.21621621622" y="445.94594594595" xlink:href="#block"/><use x="229.72972972973" y="445.94594594595" xlink:href="#block"/><use x="243.24324324324" y="445.94594594595" xlink:href="#block"/><use x="256.75675675676" y="445.94594594595" xlink:href="#block"/><use x="270.27027027027" y="445.94594594595" xlink:href="#block"/><use x="297.2972972973" y="445.94594594595" xlink:href="#block"/><use x="324.32432432432" y="445.94594594595" xlink:href="#block"/><use x="351.35135135135" y="445.94594594595" xlink:href="#block"/><use x="364.86486486486" y="445.94594594595" xlink:href="#block"/><use x="378.37837837838" y="445.94594594595" xlink:href="#block"/><use x="405.40540540541" y="445.94594594595" xlink:href="#block"/><use x="418.91891891892" y="445.94594594595" xlink:href="#block"/><use x="432.43243243243" y="445.94594594595" xlink:href="#block"/><use x="472.97297297297" y="445.94594594595" xlink:href="#block"/><use x="486.48648648649" y="445.94594594595" xlink:href="#block"/><use x="0" y="459.45945945946" xlink:href="#block"/><use x="27.027027027027" y="459.45945945946" xlink:href="#block"/><use x="40.540540540541" y="459.45945945946" xlink:href="#block"/><use x="54.054054054054" y="459.45945945946" xlink:href="#block"/><use x="81.081081081081" y="459.45945945946" xlink:href="#block"/><use x="108.10810810811" y="459.45945945946" xlink:href="#block"/><use x="121.62162162162" y="459.45945945946" xlink:href="#block"/><use x="162.16216216216" y="459.45945945946" xlink:href="#block"/><use x="189.18918918919" y="459.45945945946" xlink:href="#block"/><use x="202.7027027027" y="459.45945945946" xlink:href="#block"/><use x="216.21621621622" y="459.45945945946" xlink:href="#block"/><use x="229.72972972973" y="459.45945945946" xlink:href="#block"/><use x="243.24324324324" y="459.45945945946" xlink:href="#block"/><use x="270.27027027027" y="459.45945945946" xlink:href="#block"/><use x="283.78378378378" y="459.45945945946" xlink:href="#block"/><use x="297.2972972973" y="459.45945945946" xlink:href="#block"/><use x="310.81081081081" y="459.45945945946" xlink:href="#block"/><use x="324.32432432432" y="459.45945945946" xlink:href="#block"/><use x="337.83783783784" y="459.45945945946" xlink:href="#block"/><use x="364.86486486486" y="459.45945945946" xlink:href="#block"/><use x="391.89189189189" y="459.45945945946" xlink:href="#block"/><use x="418.91891891892" y="459.45945945946" xlink:href="#block"/><use x="432.43243243243" y="459.45945945946" xlink:href="#block"/><use x="445.94594594595" y="459.45945945946" xlink:href="#block"/><use x="459.45945945946" y="459.45945945946" xlink:href="#block"/><use x="472.97297297297" y="459.45945945946" xlink:href="#block"/><use x="0" y="472.97297297297" xlink:href="#block"/><use x="81.081081081081" y="472.97297297297" xlink:href="#block"/><use x="121.62162162162" y="472.97297297297" xlink:href="#block"/><use x="135.13513513514" y="472.97297297297" xlink:href="#block"/><use x="148.64864864865" y="472.97297297297" xlink:href="#block"/><use x="175.67567567568" y="472.97297297297" xlink:href="#block"/><use x="202.7027027027" y="472.97297297297" xlink:href="#block"/><use x="216.21621621622" y="472.97297297297" xlink:href="#block"/><use x="243.24324324324" y="472.97297297297" xlink:href="#block"/><use x="256.75675675676" y="472.97297297297" xlink:href="#block"/><use x="337.83783783784" y="472.97297297297" xlink:href="#block"/><use x="364.86486486486" y="472.97297297297" xlink:href="#block"/><use x="378.37837837838" y="472.97297297297" xlink:href="#block"/><use x="432.43243243243" y="472.97297297297" xlink:href="#block"/><use x="459.45945945946" y="472.97297297297" xlink:href="#block"/><use x="472.97297297297" y="472.97297297297" xlink:href="#block"/><use x="486.48648648649" y="472.97297297297" xlink:href="#block"/><use x="0" y="486.48648648649" xlink:href="#block"/><use x="13.513513513514" y="486.48648648649" xlink:href="#block"/><use x="27.027027027027" y="486.48648648649" xlink:href="#block"/><use x="40.540540540541" y="486.48648648649" xlink:href="#block"/><use x="54.054054054054" y="486.48648648649" xlink:href="#block"/><use x="67.567567567568" y="486.48648648649" xlink:href="#block"/><use x="81.081081081081" y="486.48648648649" xlink:href="#block"/><use x="135.13513513514" y="486.48648648649" xlink:href="#block"/><use x="148.64864864865" y="486.48648648649" xlink:href="#block"/><use x="162.16216216216" y="486.48648648649" xlink:href="#block"/><use x="175.67567567568" y="486.48648648649" xlink:href="#block"/><use x="202.7027027027" y="486.48648648649" xlink:href="#block"/><use x="270.27027027027" y="486.48648648649" xlink:href="#block"/><use x="283.78378378378" y="486.48648648649" xlink:href="#block"/><use x="324.32432432432" y="486.48648648649" xlink:href="#block"/><use x="337.83783783784" y="486.48648648649" xlink:href="#block"/><use x="378.37837837838" y="486.48648648649" xlink:href="#block"/><use x="445.94594594595" y="486.48648648649" xlink:href="#block"/><use x="472.97297297297" y="486.48648648649" xlink:href="#block"/><use x="486.48648648649" y="486.48648648649" xlink:href="#block"/></svg>
